<svg width="1063" height="193" viewBox="0 0 1063 193" fill="none" xmlns="http://www.w3.org/2000/svg">
<mask id="mask0_313_38" style="mask-type:luminance" maskUnits="userSpaceOnUse" x="0" y="0" width="1063" height="193">
<path d="M1063 0H0V193H1063V0Z" fill="white"/>
</mask>
<g mask="url(#mask0_313_38)">
<mask id="path-2-outside-1_313_38" maskUnits="userSpaceOnUse" x="-5" y="22" width="833" height="151" fill="black">
<rect fill="white" x="-5" y="22" width="833" height="151"/>
<path d="M10.7931 138.086H0L34.1219 25.7854H45.6457L79.9361 138.086H68.4125L58.013 102.746H31.4236L34.2906 90.9675H54.5276L39.5185 40.0783L10.7931 138.086ZM90.3357 94.7365V25.7854H100.736V94.7365C100.736 116.307 108.419 127.091 123.783 127.091C139.149 127.091 146.832 116.307 146.832 94.7365V25.7854H157.231V94.7365C157.231 124.16 146.082 138.871 123.783 138.871C101.486 138.871 90.3357 124.16 90.3357 94.7365ZM264.6 134.159C257.667 137.301 250.171 138.871 242.114 138.871C214.007 138.871 199.954 119.37 199.954 80.3655C199.954 43.4551 214.007 25 242.114 25C250.171 25 257.667 26.5707 264.6 29.712V42.2771C257.667 38.6123 250.546 36.7799 243.238 36.7799C221.315 36.7799 210.353 51.3083 210.353 80.3655C210.353 111.517 221.315 127.091 243.238 127.091C250.546 127.091 257.667 125.26 264.6 121.595V134.159ZM277.866 113.192C277.866 96.2815 285.849 87.8255 301.813 87.8255C306.948 87.8255 312.082 88.3485 317.216 89.3965V81.6215C317.216 72.1454 311.914 67.4073 301.307 67.4073C295.236 67.4073 289.016 68.7161 282.645 71.3339V59.5541C289.016 56.9364 295.236 55.6275 301.307 55.6275C318.846 55.6275 327.616 64.1613 327.616 81.2285V138.086H321.769L318.172 129.918C312.288 135.363 305.879 138.086 298.947 138.086C284.893 138.086 277.866 129.789 277.866 113.192ZM301.813 99.6055C292.782 99.6055 288.266 104.055 288.266 112.955C288.266 121.855 291.826 126.306 298.947 126.306C306.142 126.306 312.232 123.636 317.216 118.297V101.175C312.082 100.129 306.948 99.6055 301.813 99.6055ZM344.536 138.086V55.6275H351.563L353.305 65.9938C358.964 59.083 365.129 55.6275 371.8 55.6275C380.345 55.6275 386.172 59.397 389.282 66.9362C395.691 59.397 402.193 55.6275 408.789 55.6275C422.355 55.6275 429.138 66.0723 429.138 86.9615V138.086H418.739V86.1765C418.739 73.8731 415.028 67.7214 407.608 67.7214C402.062 67.7214 396.871 71.2815 392.037 78.4017V138.086H381.637V86.4115C381.637 73.9516 377.965 67.7214 370.62 67.7214C364.773 67.7214 359.545 71.2815 354.936 78.4017V138.086H344.536ZM456.459 121.28C460.543 124.107 465.096 125.521 470.118 125.521C482.373 125.521 488.501 115.234 488.501 94.6575C488.501 76.7002 482.41 67.7214 470.231 67.7214C464.984 67.7214 460.394 68.3497 456.459 69.6062V121.28ZM446.059 59.0044C453.891 56.7532 461.986 55.6275 470.343 55.6275C489.269 55.6275 498.731 68.69 498.731 94.8155C498.731 123.662 489.212 138.086 470.175 138.086C465.452 138.086 460.88 136.776 456.459 134.159V167.928H446.059V59.0044ZM563.715 55.6275V138.086H556.576L554.776 127.563C547.619 134.578 540.423 138.086 533.19 138.086C519.624 138.086 512.841 127.851 512.841 107.38V55.6275H523.24V107.616C523.24 119.867 527.587 125.993 536.283 125.993C542.241 125.993 547.919 122.511 553.315 115.547V55.6275H563.715ZM580.073 134.159V121.595C587.006 124.736 594.014 126.306 601.097 126.306C610.504 126.306 615.207 122.38 615.207 114.526C615.207 107.196 611.927 103.532 605.369 103.532H596.937C584.195 103.532 577.825 95.4165 577.825 79.1871C577.825 63.4807 586.013 55.6275 602.39 55.6275C609.435 55.6275 616.424 56.9364 623.358 59.5541V72.1193C616.424 68.978 609.435 67.4073 602.39 67.4073C592.571 67.4073 587.662 71.3339 587.662 79.1871C587.662 86.5165 590.753 90.1815 596.937 90.1815H605.369C618.86 90.1815 625.606 98.2965 625.606 114.526C625.606 130.233 617.437 138.086 601.097 138.086C594.014 138.086 587.006 136.776 580.073 134.159ZM640.784 138.086V25.7854H673.388C689.803 25.7854 698.01 35.8114 698.01 55.8631C698.01 77.695 686.786 91.0195 664.338 95.8365L662.202 83.5845C678.691 80.1815 686.936 71.1506 686.936 56.4914C686.936 44.031 682.102 37.8008 672.433 37.8008H651.184V138.086H640.784ZM707.904 113.192C707.904 96.2815 715.886 87.8255 731.851 87.8255C736.985 87.8255 742.119 88.3485 747.253 89.3965V81.6215C747.253 72.1454 741.95 67.4073 731.345 67.4073C725.274 67.4073 719.053 68.7161 712.682 71.3339V59.5541C719.053 56.9364 725.274 55.6275 731.345 55.6275C748.883 55.6275 757.653 64.1613 757.653 81.2285V138.086H751.807L748.209 129.918C742.326 135.363 735.917 138.086 728.984 138.086C714.93 138.086 707.904 129.789 707.904 113.192ZM731.851 99.6055C722.819 99.6055 718.303 104.055 718.303 112.955C718.303 121.855 721.863 126.306 728.984 126.306C736.18 126.306 742.269 123.636 747.253 118.297V101.175C742.119 100.129 736.985 99.6055 731.851 99.6055ZM767.547 55.6275H778.845L795.538 120.024L812.799 55.6275H823.821L799.306 140.521C794.962 155.493 788.438 164.839 779.743 168.556L775.752 158.268C782.352 154.236 787.149 147.667 790.142 138.556L767.547 55.6275Z"/>
</mask>
<path d="M10.7931 138.086H0L34.1219 25.7854H45.6457L79.9361 138.086H68.4125L58.013 102.746H31.4236L34.2906 90.9675H54.5276L39.5185 40.0783L10.7931 138.086ZM90.3357 94.7365V25.7854H100.736V94.7365C100.736 116.307 108.419 127.091 123.783 127.091C139.149 127.091 146.832 116.307 146.832 94.7365V25.7854H157.231V94.7365C157.231 124.16 146.082 138.871 123.783 138.871C101.486 138.871 90.3357 124.16 90.3357 94.7365ZM264.6 134.159C257.667 137.301 250.171 138.871 242.114 138.871C214.007 138.871 199.954 119.37 199.954 80.3655C199.954 43.4551 214.007 25 242.114 25C250.171 25 257.667 26.5707 264.6 29.712V42.2771C257.667 38.6123 250.546 36.7799 243.238 36.7799C221.315 36.7799 210.353 51.3083 210.353 80.3655C210.353 111.517 221.315 127.091 243.238 127.091C250.546 127.091 257.667 125.26 264.6 121.595V134.159ZM277.866 113.192C277.866 96.2815 285.849 87.8255 301.813 87.8255C306.948 87.8255 312.082 88.3485 317.216 89.3965V81.6215C317.216 72.1454 311.914 67.4073 301.307 67.4073C295.236 67.4073 289.016 68.7161 282.645 71.3339V59.5541C289.016 56.9364 295.236 55.6275 301.307 55.6275C318.846 55.6275 327.616 64.1613 327.616 81.2285V138.086H321.769L318.172 129.918C312.288 135.363 305.879 138.086 298.947 138.086C284.893 138.086 277.866 129.789 277.866 113.192ZM301.813 99.6055C292.782 99.6055 288.266 104.055 288.266 112.955C288.266 121.855 291.826 126.306 298.947 126.306C306.142 126.306 312.232 123.636 317.216 118.297V101.175C312.082 100.129 306.948 99.6055 301.813 99.6055ZM344.536 138.086V55.6275H351.563L353.305 65.9938C358.964 59.083 365.129 55.6275 371.8 55.6275C380.345 55.6275 386.172 59.397 389.282 66.9362C395.691 59.397 402.193 55.6275 408.789 55.6275C422.355 55.6275 429.138 66.0723 429.138 86.9615V138.086H418.739V86.1765C418.739 73.8731 415.028 67.7214 407.608 67.7214C402.062 67.7214 396.871 71.2815 392.037 78.4017V138.086H381.637V86.4115C381.637 73.9516 377.965 67.7214 370.62 67.7214C364.773 67.7214 359.545 71.2815 354.936 78.4017V138.086H344.536ZM456.459 121.28C460.543 124.107 465.096 125.521 470.118 125.521C482.373 125.521 488.501 115.234 488.501 94.6575C488.501 76.7002 482.41 67.7214 470.231 67.7214C464.984 67.7214 460.394 68.3497 456.459 69.6062V121.28ZM446.059 59.0044C453.891 56.7532 461.986 55.6275 470.343 55.6275C489.269 55.6275 498.731 68.69 498.731 94.8155C498.731 123.662 489.212 138.086 470.175 138.086C465.452 138.086 460.88 136.776 456.459 134.159V167.928H446.059V59.0044ZM563.715 55.6275V138.086H556.576L554.776 127.563C547.619 134.578 540.423 138.086 533.19 138.086C519.624 138.086 512.841 127.851 512.841 107.38V55.6275H523.24V107.616C523.24 119.867 527.587 125.993 536.283 125.993C542.241 125.993 547.919 122.511 553.315 115.547V55.6275H563.715ZM580.073 134.159V121.595C587.006 124.736 594.014 126.306 601.097 126.306C610.504 126.306 615.207 122.38 615.207 114.526C615.207 107.196 611.927 103.532 605.369 103.532H596.937C584.195 103.532 577.825 95.4165 577.825 79.1871C577.825 63.4807 586.013 55.6275 602.39 55.6275C609.435 55.6275 616.424 56.9364 623.358 59.5541V72.1193C616.424 68.978 609.435 67.4073 602.39 67.4073C592.571 67.4073 587.662 71.3339 587.662 79.1871C587.662 86.5165 590.753 90.1815 596.937 90.1815H605.369C618.86 90.1815 625.606 98.2965 625.606 114.526C625.606 130.233 617.437 138.086 601.097 138.086C594.014 138.086 587.006 136.776 580.073 134.159ZM640.784 138.086V25.7854H673.388C689.803 25.7854 698.01 35.8114 698.01 55.8631C698.01 77.695 686.786 91.0195 664.338 95.8365L662.202 83.5845C678.691 80.1815 686.936 71.1506 686.936 56.4914C686.936 44.031 682.102 37.8008 672.433 37.8008H651.184V138.086H640.784ZM707.904 113.192C707.904 96.2815 715.886 87.8255 731.851 87.8255C736.985 87.8255 742.119 88.3485 747.253 89.3965V81.6215C747.253 72.1454 741.95 67.4073 731.345 67.4073C725.274 67.4073 719.053 68.7161 712.682 71.3339V59.5541C719.053 56.9364 725.274 55.6275 731.345 55.6275C748.883 55.6275 757.653 64.1613 757.653 81.2285V138.086H751.807L748.209 129.918C742.326 135.363 735.917 138.086 728.984 138.086C714.93 138.086 707.904 129.789 707.904 113.192ZM731.851 99.6055C722.819 99.6055 718.303 104.055 718.303 112.955C718.303 121.855 721.863 126.306 728.984 126.306C736.18 126.306 742.269 123.636 747.253 118.297V101.175C742.119 100.129 736.985 99.6055 731.851 99.6055ZM767.547 55.6275H778.845L795.538 120.024L812.799 55.6275H823.821L799.306 140.521C794.962 155.493 788.438 164.839 779.743 168.556L775.752 158.268C782.352 154.236 787.149 147.667 790.142 138.556L767.547 55.6275Z" fill="white"/>
<path d="M10.7931 138.086H0L34.1219 25.7854H45.6457L79.9361 138.086H68.4125L58.013 102.746H31.4236L34.2906 90.9675H54.5276L39.5185 40.0783L10.7931 138.086ZM90.3357 94.7365V25.7854H100.736V94.7365C100.736 116.307 108.419 127.091 123.783 127.091C139.149 127.091 146.832 116.307 146.832 94.7365V25.7854H157.231V94.7365C157.231 124.16 146.082 138.871 123.783 138.871C101.486 138.871 90.3357 124.16 90.3357 94.7365ZM264.6 134.159C257.667 137.301 250.171 138.871 242.114 138.871C214.007 138.871 199.954 119.37 199.954 80.3655C199.954 43.4551 214.007 25 242.114 25C250.171 25 257.667 26.5707 264.6 29.712V42.2771C257.667 38.6123 250.546 36.7799 243.238 36.7799C221.315 36.7799 210.353 51.3083 210.353 80.3655C210.353 111.517 221.315 127.091 243.238 127.091C250.546 127.091 257.667 125.26 264.6 121.595V134.159ZM277.866 113.192C277.866 96.2815 285.849 87.8255 301.813 87.8255C306.948 87.8255 312.082 88.3485 317.216 89.3965V81.6215C317.216 72.1454 311.914 67.4073 301.307 67.4073C295.236 67.4073 289.016 68.7161 282.645 71.3339V59.5541C289.016 56.9364 295.236 55.6275 301.307 55.6275C318.846 55.6275 327.616 64.1613 327.616 81.2285V138.086H321.769L318.172 129.918C312.288 135.363 305.879 138.086 298.947 138.086C284.893 138.086 277.866 129.789 277.866 113.192ZM301.813 99.6055C292.782 99.6055 288.266 104.055 288.266 112.955C288.266 121.855 291.826 126.306 298.947 126.306C306.142 126.306 312.232 123.636 317.216 118.297V101.175C312.082 100.129 306.948 99.6055 301.813 99.6055ZM344.536 138.086V55.6275H351.563L353.305 65.9938C358.964 59.083 365.129 55.6275 371.8 55.6275C380.345 55.6275 386.172 59.397 389.282 66.9362C395.691 59.397 402.193 55.6275 408.789 55.6275C422.355 55.6275 429.138 66.0723 429.138 86.9615V138.086H418.739V86.1765C418.739 73.8731 415.028 67.7214 407.608 67.7214C402.062 67.7214 396.871 71.2815 392.037 78.4017V138.086H381.637V86.4115C381.637 73.9516 377.965 67.7214 370.62 67.7214C364.773 67.7214 359.545 71.2815 354.936 78.4017V138.086H344.536ZM456.459 121.28C460.543 124.107 465.096 125.521 470.118 125.521C482.373 125.521 488.501 115.234 488.501 94.6575C488.501 76.7002 482.41 67.7214 470.231 67.7214C464.984 67.7214 460.394 68.3497 456.459 69.6062V121.28ZM446.059 59.0044C453.891 56.7532 461.986 55.6275 470.343 55.6275C489.269 55.6275 498.731 68.69 498.731 94.8155C498.731 123.662 489.212 138.086 470.175 138.086C465.452 138.086 460.88 136.776 456.459 134.159V167.928H446.059V59.0044ZM563.715 55.6275V138.086H556.576L554.776 127.563C547.619 134.578 540.423 138.086 533.19 138.086C519.624 138.086 512.841 127.851 512.841 107.38V55.6275H523.24V107.616C523.24 119.867 527.587 125.993 536.283 125.993C542.241 125.993 547.919 122.511 553.315 115.547V55.6275H563.715ZM580.073 134.159V121.595C587.006 124.736 594.014 126.306 601.097 126.306C610.504 126.306 615.207 122.38 615.207 114.526C615.207 107.196 611.927 103.532 605.369 103.532H596.937C584.195 103.532 577.825 95.4165 577.825 79.1871C577.825 63.4807 586.013 55.6275 602.39 55.6275C609.435 55.6275 616.424 56.9364 623.358 59.5541V72.1193C616.424 68.978 609.435 67.4073 602.39 67.4073C592.571 67.4073 587.662 71.3339 587.662 79.1871C587.662 86.5165 590.753 90.1815 596.937 90.1815H605.369C618.86 90.1815 625.606 98.2965 625.606 114.526C625.606 130.233 617.437 138.086 601.097 138.086C594.014 138.086 587.006 136.776 580.073 134.159ZM640.784 138.086V25.7854H673.388C689.803 25.7854 698.01 35.8114 698.01 55.8631C698.01 77.695 686.786 91.0195 664.338 95.8365L662.202 83.5845C678.691 80.1815 686.936 71.1506 686.936 56.4914C686.936 44.031 682.102 37.8008 672.433 37.8008H651.184V138.086H640.784ZM707.904 113.192C707.904 96.2815 715.886 87.8255 731.851 87.8255C736.985 87.8255 742.119 88.3485 747.253 89.3965V81.6215C747.253 72.1454 741.95 67.4073 731.345 67.4073C725.274 67.4073 719.053 68.7161 712.682 71.3339V59.5541C719.053 56.9364 725.274 55.6275 731.345 55.6275C748.883 55.6275 757.653 64.1613 757.653 81.2285V138.086H751.807L748.209 129.918C742.326 135.363 735.917 138.086 728.984 138.086C714.93 138.086 707.904 129.789 707.904 113.192ZM731.851 99.6055C722.819 99.6055 718.303 104.055 718.303 112.955C718.303 121.855 721.863 126.306 728.984 126.306C736.18 126.306 742.269 123.636 747.253 118.297V101.175C742.119 100.129 736.985 99.6055 731.851 99.6055ZM767.547 55.6275H778.845L795.538 120.024L812.799 55.6275H823.821L799.306 140.521C794.962 155.493 788.438 164.839 779.743 168.556L775.752 158.268C782.352 154.236 787.149 147.667 790.142 138.556L767.547 55.6275Z" stroke="#FFB6B6" stroke-width="6" mask="url(#path-2-outside-1_313_38)"/>
<path d="M909.498 0H848.098V193H909.498V0Z" fill="#F69E9E"/>
<path d="M986.248 0H924.848V193H986.248V0Z" fill="#FFC9C9"/>
<path d="M1063 0H1001.6V193H1063V0Z" fill="#FFEDED"/>
</g>
</svg>
