<svg width="500" height="500" viewBox="0 0 500 500" fill="none" xmlns="http://www.w3.org/2000/svg">
<path opacity="0.5" d="M124.401 411.339C204.461 449.489 334.261 449.489 414.321 411.339C494.381 373.189 494.371 311.339 414.321 273.159C334.271 234.979 204.461 234.999 124.401 273.159C44.3406 311.319 44.3506 373.179 124.401 411.339Z" fill="#EBEBEB"/>
<path d="M383.843 339.951C414.396 339.951 439.163 328.145 439.163 313.581C439.163 299.017 414.396 287.211 383.843 287.211C353.291 287.211 328.523 299.017 328.523 313.581C328.523 328.145 353.291 339.951 383.843 339.951Z" fill="#E0E0E0"/>
<path d="M300.183 418.552C285.403 425.602 261.443 425.602 246.663 418.552C231.883 411.502 231.883 400.092 246.663 393.042C261.443 385.992 285.403 386.042 300.183 393.042C314.963 400.042 315.003 411.512 300.183 418.552Z" fill="#E0E0E0"/>
<path d="M101.403 328.591L109.533 323.901C109.533 323.901 113.823 304.771 107.433 280.471C101.043 256.171 82.6129 238.001 73.0029 241.811C63.3929 245.621 63.6429 252.811 68.9429 260.101C73.3429 266.101 87.6129 280.701 94.4729 297.521C98.5597 307.4 100.904 317.912 101.403 328.591Z" fill="#F36C6C"/>
<path opacity="0.1" d="M101.403 328.591L109.533 323.901C109.533 323.901 113.823 304.771 107.433 280.471C101.043 256.171 82.6129 238.001 73.0029 241.811C63.3929 245.621 63.6429 252.811 68.9429 260.101C73.3429 266.101 87.6129 280.701 94.4729 297.521C98.5597 307.4 100.904 317.912 101.403 328.591Z" fill="black"/>
<path d="M105.726 326.589H105.656C105.526 326.57 105.41 326.5 105.331 326.395C105.253 326.29 105.218 326.159 105.236 326.029C110.786 286.029 85.9956 253.689 74.7156 246.939C74.6502 246.911 74.5916 246.869 74.5438 246.816C74.4959 246.764 74.4599 246.701 74.4381 246.634C74.4163 246.566 74.4092 246.494 74.4173 246.423C74.4255 246.353 74.4487 246.284 74.4853 246.223C74.522 246.162 74.5712 246.11 74.6298 246.069C74.6884 246.029 74.755 246.001 74.8251 245.988C74.8952 245.976 74.9672 245.978 75.0363 245.996C75.1054 246.013 75.1699 246.045 75.2256 246.089C86.6756 252.929 111.846 285.699 106.226 326.169C106.205 326.287 106.143 326.393 106.052 326.47C105.96 326.547 105.845 326.589 105.726 326.589Z" fill="white"/>
<path d="M101.399 328.59L89.2195 335.59C86.6756 334.319 83.9199 333.526 81.0895 333.25C75.9095 332.6 72.4595 327.6 72.9695 323.87C73.3095 321.35 74.1195 318.48 73.7295 315.93C73.3895 313.65 71.1795 311.6 69.1195 310.8C67.3663 310.253 65.5359 309.992 63.6995 310.03C60.7695 309.89 57.6995 309.56 55.2295 308.03C52.7595 306.5 50.9395 303.44 51.7395 300.61C52.2774 299.146 53.1507 297.827 54.2895 296.76C55.4236 295.691 56.3434 294.415 56.9995 293C58.0795 290.18 56.1695 288.38 53.8995 287.07C45.8995 282.47 42.2995 278.84 45.1795 275.36C48.0595 271.88 55.9695 270.36 64.0795 274.62C72.1895 278.88 78.9195 274.31 84.2695 275.21C92.6495 276.61 93.1395 282.53 92.0995 287.67C91.0595 292.81 101.429 295 103.999 301.17C105.929 305.65 107.509 320.37 101.399 328.59Z" fill="#F36C6C"/>
<path d="M97.341 331.432C97.2118 331.432 97.0876 331.382 96.9944 331.293C96.9012 331.203 96.8462 331.081 96.841 330.952C95.841 302.402 59.2511 277.502 50.6211 276.072C50.556 276.062 50.4935 276.04 50.4372 276.006C50.3809 275.972 50.3318 275.927 50.2928 275.874C50.2538 275.821 50.2256 275.761 50.2098 275.697C50.1941 275.633 50.1911 275.567 50.2011 275.502C50.2255 275.372 50.2997 275.256 50.4079 275.179C50.5162 275.103 50.65 275.072 50.7811 275.092C59.8711 276.592 96.831 301.302 97.841 330.912C97.8437 330.978 97.8334 331.043 97.8108 331.105C97.7881 331.167 97.7535 331.223 97.7089 331.272C97.6643 331.32 97.6106 331.359 97.5509 331.386C97.4913 331.414 97.4267 331.429 97.3611 331.432H97.341Z" fill="white"/>
<path d="M254.262 383.002C253.862 378.002 250.002 369.462 244.262 363.382C238.522 357.302 229.402 354.382 223.762 356.822C218.512 359.102 219.672 366.142 226.602 370.312C233.532 374.482 243.852 379.582 247.392 387.472L254.232 396.942L254.262 383.002Z" fill="#F36C6C"/>
<path opacity="0.1" d="M254.262 383.002C253.862 378.002 250.002 369.462 244.262 363.382C238.522 357.302 229.402 354.382 223.762 356.822C218.512 359.102 219.672 366.142 226.602 370.312C233.532 374.482 243.852 379.582 247.392 387.472L254.232 396.942L254.262 383.002Z" fill="black"/>
<path d="M254.263 392.162H254.363C254.452 392.15 254.537 392.12 254.615 392.075C254.692 392.029 254.759 391.969 254.813 391.898C254.867 391.826 254.906 391.744 254.929 391.658C254.951 391.571 254.956 391.481 254.943 391.392C252.453 372.862 233.623 359.972 226.133 358.552C226.045 358.535 225.955 358.535 225.867 358.553C225.779 358.57 225.695 358.605 225.621 358.655C225.546 358.706 225.483 358.77 225.433 358.845C225.384 358.92 225.35 359.004 225.333 359.092C225.316 359.18 225.316 359.271 225.334 359.359C225.352 359.446 225.387 359.53 225.437 359.604C225.487 359.679 225.551 359.742 225.626 359.792C225.701 359.841 225.785 359.875 225.873 359.892C232.873 361.222 251.213 373.972 253.583 391.572C253.607 391.735 253.689 391.885 253.814 391.993C253.939 392.101 254.098 392.161 254.263 392.162Z" fill="white"/>
<path d="M253.523 403.701C252.523 400.951 248.683 396.581 242.813 393.201C236.323 389.451 228.393 388.121 226.333 384.971C223.863 381.171 226.903 377.161 233.273 377.431C239.643 377.701 251.453 385.431 254.273 398.261L253.523 403.701Z" fill="#F36C6C"/>
<path d="M254.001 401.001H254.131C254.22 400.985 254.305 400.95 254.381 400.9C254.456 400.85 254.521 400.786 254.572 400.71C254.622 400.635 254.657 400.55 254.674 400.461C254.691 400.372 254.69 400.28 254.671 400.191C252.781 390.691 239.011 380.851 230.111 380.441C229.932 380.441 229.758 380.507 229.625 380.627C229.492 380.747 229.408 380.913 229.391 381.091C229.385 381.274 229.451 381.451 229.575 381.586C229.698 381.72 229.869 381.801 230.051 381.811C238.311 382.191 251.581 391.661 253.331 400.461C253.363 400.615 253.448 400.752 253.57 400.851C253.692 400.949 253.844 401.002 254.001 401.001Z" fill="white"/>
<path d="M92.6606 336C92.0835 335.613 91.6345 335.063 91.371 334.42C91.1074 333.777 91.0411 333.071 91.1806 332.39L126.641 175.45C127.067 173.932 128.03 172.621 129.351 171.76L340.351 49.96C340.996 49.6188 341.712 49.4347 342.442 49.4225C343.172 49.4104 343.894 49.5705 344.551 49.89C345.119 50.2794 345.559 50.8277 345.817 51.4663C346.075 52.1048 346.139 52.8053 346.001 53.48L310.531 210.42C310.103 211.94 309.136 213.252 307.811 214.11L96.8606 335.91C96.217 336.254 95.5012 336.442 94.7714 336.458C94.0416 336.473 93.3184 336.316 92.6606 336Z" fill="#F0F0F0"/>
<path d="M130.7 177.771L95.2399 334.771C94.9399 336.111 95.6599 336.651 96.8599 335.961L307.86 214.161C309.185 213.303 310.152 211.991 310.58 210.471L346 53.4807C346.3 52.1307 345.58 51.6007 344.38 52.2907L133.38 174.091C132.073 174.956 131.122 176.262 130.7 177.771Z" fill="#E6E6E6"/>
<path d="M348.573 52.2095C347.916 51.8915 347.193 51.733 346.464 51.7469C345.734 51.7608 345.018 51.9467 344.373 52.2895L133.373 174.089C132.761 174.486 132.269 175.042 131.95 175.697C131.631 176.353 131.497 177.083 131.563 177.809L159.333 372.199C159.469 372.936 159.75 373.639 160.16 374.265C160.571 374.892 161.102 375.431 161.723 375.849C162.378 376.17 163.099 376.329 163.828 376.316C164.557 376.302 165.271 376.114 165.913 375.769L376.873 253.999C377.487 253.602 377.98 253.045 378.299 252.387C378.618 251.73 378.751 250.997 378.683 250.269L351.003 55.8595C350.864 55.1193 350.576 54.4147 350.159 53.7877C349.742 53.1607 349.202 52.6239 348.573 52.2095Z" fill="#F0F0F0"/>
<path d="M135.657 180.163L163.387 374.553C163.393 374.842 163.478 375.125 163.635 375.369C163.791 375.614 164.012 375.81 164.273 375.936C164.534 376.062 164.825 376.114 165.113 376.085C165.402 376.056 165.677 375.948 165.907 375.773L376.867 254.003C377.481 253.606 377.974 253.048 378.293 252.39C378.612 251.733 378.745 251 378.677 250.273L350.997 55.8626C350.994 55.5719 350.909 55.2879 350.754 55.0423C350.598 54.7967 350.377 54.5991 350.116 54.4716C349.855 54.3441 349.563 54.2916 349.274 54.32C348.985 54.3485 348.709 54.4567 348.477 54.6326L137.477 176.433C136.862 176.828 136.367 177.385 136.046 178.043C135.725 178.701 135.59 179.434 135.657 180.163Z" fill="#FAFAFA"/>
<path d="M95.4297 333.889L149.43 302.699L151 313.999L126.24 328.299C126.24 328.299 119.64 330.639 117.02 331.299C114.4 331.959 95.4297 333.889 95.4297 333.889Z" fill="#E0E0E0"/>
<path d="M151.033 314.012L159.133 370.812L126.273 328.312L151.033 314.012Z" fill="#E6E6E6"/>
<path d="M158.16 372.701L128.71 334.451C128.221 333.881 127.603 333.435 126.907 333.152C126.212 332.868 125.458 332.755 124.71 332.821L97.17 336.821C95.6191 336.987 94.0532 336.702 92.66 336.001C91.54 335.361 91.73 334.621 93.08 334.361L124.73 328.271C125.472 328.159 126.23 328.242 126.931 328.51C127.632 328.778 128.252 329.223 128.73 329.801L162.26 375.001C163.08 376.111 162.84 376.481 161.72 375.831C160.37 374.99 159.167 373.932 158.16 372.701Z" fill="#E0E0E0"/>
<path d="M346.054 52.7126C346.05 52.1492 345.908 51.5953 345.639 51.1C345.37 50.6046 344.984 50.1831 344.514 49.8726C343.856 49.5578 343.133 49.401 342.404 49.4149C341.675 49.4288 340.959 49.6129 340.314 49.9526L129.314 171.753C128.67 172.156 128.11 172.679 127.664 173.293C127.168 173.931 126.804 174.662 126.594 175.443L121.594 197.613L125.654 199.943L341.004 75.6426L346.004 53.4826C346.051 53.2288 346.071 52.9707 346.064 52.7126H346.054Z" fill="#F36C6C"/>
<path opacity="0.2" d="M346.002 53.4807C346.302 52.1307 345.582 51.6007 344.382 52.2907L133.382 174.091C132.064 174.95 131.102 176.257 130.672 177.771L125.672 199.941L341.002 75.6407L346.002 53.4807Z" fill="black"/>
<path opacity="0.1" d="M131.761 175.631C131.264 176.264 130.903 176.993 130.701 177.771L125.701 199.941L121.641 197.601L126.641 175.431C126.851 174.651 127.215 173.92 127.711 173.281L131.761 175.631Z" fill="black"/>
<path opacity="0.4" d="M346.054 52.7009C345.954 51.9509 345.304 51.7009 344.374 52.2909L133.374 174.081C132.726 174.482 132.165 175.009 131.724 175.631L127.664 173.281C128.111 172.667 128.671 172.144 129.314 171.741L340.314 49.9409C340.959 49.6012 341.675 49.4171 342.405 49.4032C343.134 49.3893 343.856 49.546 344.514 49.8609C344.984 50.1714 345.371 50.5929 345.639 51.0882C345.908 51.5836 346.05 52.1374 346.054 52.7009Z" fill="white"/>
<path d="M351.214 57.7195L351.004 55.8595C350.989 55.7685 350.969 55.6783 350.944 55.5895C350.948 55.563 350.948 55.5359 350.944 55.5095C350.604 54.1638 349.782 52.9896 348.634 52.2095C347.977 51.8915 347.254 51.733 346.524 51.7469C345.794 51.7608 345.078 51.9467 344.434 52.2895L133.434 174.089C132.795 174.485 132.29 175.063 131.984 175.749C131.671 176.388 131.547 177.103 131.624 177.809L135.624 205.659L139.684 208.009L354.934 83.7195L351.214 57.7195Z" fill="#F36C6C"/>
<path opacity="0.1" d="M139.637 208.002L135.577 205.652L131.577 177.802C131.5 177.095 131.625 176.381 131.937 175.742L136.007 178.082C135.687 178.719 135.559 179.434 135.637 180.142L139.637 208.002Z" fill="black"/>
<path opacity="0.4" d="M350.88 55.5095C350.823 55.2575 350.703 55.0241 350.532 54.8305C350.361 54.637 350.144 54.4896 349.901 54.402C349.658 54.3143 349.397 54.2892 349.141 54.329C348.886 54.3687 348.645 54.4721 348.44 54.6295L137.44 176.429C136.799 176.822 136.293 177.401 135.99 178.089L132 175.749C132.309 175.062 132.813 174.481 133.45 174.079L344.45 52.2895C345.094 51.9467 345.811 51.7608 346.54 51.7469C347.27 51.733 347.993 51.8915 348.65 52.2095C349.771 53.001 350.564 54.1745 350.88 55.5095Z" fill="white"/>
<path d="M195.65 342.341L193.13 324.631C193.126 324.4 193.059 324.175 192.936 323.98C192.814 323.785 192.64 323.627 192.433 323.524C192.227 323.42 191.996 323.376 191.767 323.395C191.537 323.414 191.316 323.495 191.13 323.631L172.74 334.251C172.244 334.568 171.846 335.016 171.59 335.546C171.334 336.075 171.23 336.666 171.29 337.251L173.8 355.001C173.8 355.233 173.864 355.461 173.986 355.658C174.108 355.856 174.283 356.015 174.491 356.119C174.698 356.223 174.931 356.267 175.162 356.246C175.393 356.225 175.614 356.14 175.8 356.001L194.19 345.381C194.694 345.063 195.099 344.609 195.358 344.071C195.616 343.533 195.717 342.934 195.65 342.341Z" fill="#F36C6C"/>
<path d="M224.089 325.942L221.559 308.242C221.559 308.01 221.494 307.782 221.372 307.585C221.25 307.388 221.075 307.228 220.868 307.124C220.66 307.02 220.428 306.976 220.197 306.997C219.965 307.018 219.745 307.103 219.559 307.242L201.169 317.852C200.674 318.17 200.277 318.618 200.021 319.148C199.765 319.677 199.661 320.267 199.719 320.852L202.249 338.562C202.249 338.794 202.313 339.022 202.436 339.219C202.558 339.417 202.732 339.576 202.94 339.68C203.147 339.784 203.38 339.828 203.611 339.807C203.842 339.786 204.063 339.701 204.249 339.562L222.639 328.942C223.135 328.626 223.534 328.178 223.79 327.648C224.046 327.118 224.149 326.528 224.089 325.942Z" fill="#EBEBEB"/>
<path d="M252.529 309.54L249.999 291.84C249.999 291.608 249.934 291.38 249.812 291.183C249.69 290.985 249.515 290.826 249.308 290.722C249.1 290.618 248.867 290.574 248.636 290.595C248.405 290.616 248.184 290.701 247.999 290.84L229.599 301.47C229.104 301.788 228.707 302.236 228.451 302.765C228.195 303.295 228.09 303.885 228.149 304.47L230.679 322.18C230.679 322.412 230.743 322.64 230.865 322.837C230.987 323.034 231.162 323.194 231.37 323.298C231.577 323.402 231.81 323.446 232.041 323.425C232.272 323.404 232.493 323.319 232.679 323.18L251.069 312.56C251.57 312.243 251.973 311.793 252.231 311.259C252.489 310.725 252.592 310.129 252.529 309.54Z" fill="#EBEBEB"/>
<path d="M280.998 293.151L278.468 275.441C278.468 275.209 278.403 274.982 278.281 274.784C278.159 274.587 277.985 274.427 277.777 274.323C277.569 274.22 277.337 274.176 277.106 274.196C276.875 274.217 276.654 274.302 276.468 274.441L257.998 285.081C257.502 285.398 257.103 285.846 256.847 286.376C256.591 286.905 256.488 287.496 256.548 288.081L259.078 305.781C259.078 306.014 259.143 306.241 259.265 306.439C259.387 306.636 259.561 306.796 259.769 306.899C259.977 307.003 260.209 307.047 260.44 307.026C260.672 307.006 260.892 306.921 261.078 306.781L279.468 296.171C279.981 295.862 280.396 295.415 280.667 294.881C280.937 294.347 281.052 293.748 280.998 293.151Z" fill="#EBEBEB"/>
<path d="M309.41 276.75L306.88 259C306.88 258.768 306.816 258.54 306.694 258.343C306.572 258.145 306.397 257.986 306.189 257.882C305.982 257.778 305.749 257.734 305.518 257.755C305.287 257.776 305.066 257.861 304.88 258L286.49 268.62C285.994 268.936 285.595 269.384 285.339 269.914C285.083 270.444 284.98 271.035 285.04 271.62L287.57 289.32C287.57 289.552 287.635 289.78 287.757 289.977C287.879 290.175 288.054 290.334 288.261 290.438C288.469 290.542 288.701 290.586 288.933 290.565C289.164 290.544 289.385 290.459 289.57 290.32L308 279.73C308.484 279.409 308.872 278.961 309.12 278.436C309.369 277.911 309.469 277.328 309.41 276.75Z" fill="#EBEBEB"/>
<path d="M337.848 260.351L335.318 242.641C335.318 242.408 335.253 242.181 335.131 241.983C335.009 241.786 334.834 241.626 334.627 241.523C334.419 241.419 334.187 241.375 333.956 241.396C333.724 241.417 333.503 241.501 333.318 241.641L314.928 252.261C314.431 252.577 314.033 253.025 313.777 253.555C313.521 254.085 313.417 254.675 313.478 255.261L315.998 273.001C315.998 273.233 316.062 273.46 316.184 273.658C316.306 273.855 316.481 274.015 316.689 274.119C316.896 274.222 317.129 274.266 317.36 274.246C317.591 274.225 317.812 274.14 317.998 274.001L336.388 263.381C336.89 263.063 337.293 262.61 337.551 262.074C337.809 261.539 337.912 260.942 337.848 260.351Z" fill="#EBEBEB"/>
<path d="M366.293 243.999L363.763 226.289C363.763 226.057 363.698 225.829 363.576 225.632C363.454 225.434 363.279 225.275 363.072 225.171C362.864 225.067 362.631 225.023 362.4 225.044C362.169 225.065 361.948 225.15 361.763 225.289L343.373 235.909C342.877 236.226 342.479 236.674 342.223 237.204C341.967 237.734 341.863 238.324 341.923 238.909L344.443 256.619C344.446 256.85 344.513 257.075 344.636 257.27C344.759 257.465 344.933 257.623 345.139 257.726C345.345 257.83 345.576 257.874 345.806 257.855C346.036 257.836 346.256 257.755 346.443 257.619L364.832 246.999C365.33 246.683 365.73 246.236 365.988 245.706C366.245 245.176 366.351 244.585 366.293 243.999Z" fill="#EBEBEB"/>
<path d="M190.714 307.692L188.184 290.002C188.181 289.771 188.114 289.546 187.991 289.351C187.868 289.156 187.694 288.998 187.488 288.895C187.282 288.792 187.051 288.747 186.821 288.766C186.591 288.785 186.371 288.867 186.184 289.002L167.794 299.622C167.299 299.939 166.901 300.387 166.645 300.917C166.389 301.447 166.285 302.037 166.344 302.622L168.864 320.332C168.868 320.563 168.935 320.788 169.058 320.983C169.18 321.178 169.354 321.336 169.561 321.439C169.767 321.542 169.998 321.587 170.228 321.568C170.457 321.549 170.678 321.467 170.864 321.332L189.254 310.712C189.752 310.391 190.151 309.94 190.409 309.407C190.666 308.874 190.772 308.281 190.714 307.692Z" fill="#F36C6C"/>
<path d="M219.152 291.29L216.622 273.58C216.618 273.35 216.551 273.124 216.429 272.929C216.306 272.734 216.132 272.576 215.926 272.473C215.719 272.37 215.489 272.325 215.259 272.344C215.029 272.363 214.809 272.445 214.622 272.58L196.232 283.2C195.736 283.517 195.338 283.965 195.083 284.495C194.827 285.025 194.722 285.615 194.782 286.2L197.302 303.91C197.306 304.141 197.372 304.366 197.495 304.561C197.618 304.757 197.792 304.914 197.998 305.017C198.205 305.121 198.435 305.165 198.665 305.146C198.895 305.127 199.115 305.046 199.302 304.91L217.692 294.29C218.186 293.971 218.583 293.523 218.841 292.994C219.098 292.465 219.206 291.876 219.152 291.29Z" fill="#EBEBEB"/>
<path d="M247.589 274.892L245.059 257.182C245.056 256.951 244.989 256.726 244.866 256.531C244.743 256.335 244.569 256.178 244.363 256.074C244.157 255.971 243.926 255.927 243.696 255.946C243.466 255.965 243.246 256.046 243.059 256.182L224.669 266.802C224.174 267.119 223.776 267.567 223.52 268.097C223.264 268.626 223.16 269.216 223.219 269.802L225.739 287.512C225.743 287.742 225.81 287.968 225.933 288.163C226.055 288.358 226.229 288.516 226.436 288.619C226.642 288.722 226.873 288.767 227.103 288.748C227.332 288.729 227.553 288.647 227.739 288.512L246.129 277.892C246.624 277.573 247.021 277.124 247.278 276.596C247.536 276.067 247.643 275.477 247.589 274.892Z" fill="#EBEBEB"/>
<path d="M275.999 258.489L273.469 240.779C273.465 240.549 273.398 240.324 273.275 240.128C273.153 239.933 272.978 239.775 272.772 239.672C272.566 239.569 272.335 239.524 272.105 239.543C271.875 239.562 271.655 239.644 271.469 239.779L253.099 250.419C252.604 250.737 252.207 251.186 251.951 251.715C251.695 252.244 251.59 252.834 251.649 253.419L254.169 271.129C254.172 271.36 254.239 271.585 254.362 271.78C254.485 271.976 254.659 272.134 254.865 272.237C255.071 272.34 255.302 272.384 255.532 272.365C255.762 272.347 255.982 272.265 256.169 272.129L274.559 261.509C275.053 261.187 275.449 260.735 275.703 260.202C275.957 259.669 276.059 259.076 275.999 258.489Z" fill="#EBEBEB"/>
<path d="M304.474 242.091L301.944 224.391C301.944 224.158 301.879 223.931 301.757 223.733C301.635 223.536 301.46 223.376 301.253 223.273C301.045 223.169 300.813 223.125 300.582 223.146C300.35 223.167 300.13 223.251 299.944 223.391L281.544 234.001C281.049 234.318 280.652 234.767 280.396 235.296C280.14 235.826 280.036 236.416 280.094 237.001L282.614 254.711C282.617 254.941 282.684 255.166 282.807 255.362C282.93 255.557 283.104 255.715 283.31 255.818C283.517 255.921 283.747 255.966 283.977 255.947C284.207 255.928 284.427 255.846 284.614 255.711L303.004 245.071C303.497 244.755 303.895 244.311 304.154 243.786C304.414 243.26 304.524 242.674 304.474 242.091Z" fill="#EBEBEB"/>
<path d="M332.908 225.69L330.378 208C330.378 207.768 330.313 207.54 330.191 207.343C330.069 207.145 329.895 206.986 329.687 206.882C329.48 206.778 329.247 206.734 329.016 206.755C328.785 206.776 328.564 206.861 328.378 207L309.998 217.63C309.502 217.946 309.103 218.394 308.847 218.924C308.591 219.454 308.488 220.045 308.548 220.63L311.068 238.33C311.072 238.561 311.139 238.786 311.261 238.981C311.384 239.176 311.558 239.334 311.764 239.437C311.971 239.54 312.201 239.585 312.431 239.566C312.661 239.547 312.881 239.465 313.068 239.33L331.458 228.71C331.954 228.389 332.352 227.937 332.608 227.404C332.864 226.871 332.968 226.278 332.908 225.69Z" fill="#EBEBEB"/>
<path d="M361.348 209.3L358.818 191.59C358.818 191.358 358.753 191.13 358.631 190.933C358.509 190.735 358.334 190.576 358.127 190.472C357.919 190.368 357.687 190.324 357.456 190.345C357.224 190.366 357.004 190.451 356.818 190.59L338.418 201.21C337.924 201.528 337.528 201.977 337.274 202.506C337.02 203.036 336.917 203.626 336.978 204.21L339.498 221.91C339.501 222.14 339.568 222.366 339.691 222.561C339.814 222.756 339.988 222.914 340.194 223.017C340.4 223.12 340.631 223.165 340.861 223.146C341.091 223.127 341.311 223.045 341.498 222.91L359.888 212.3C360.381 211.98 360.778 211.532 361.035 211.003C361.292 210.474 361.401 209.885 361.348 209.3Z" fill="#EBEBEB"/>
<path d="M185.762 273.001L183.242 255.291C183.238 255.06 183.171 254.835 183.049 254.64C182.926 254.445 182.752 254.287 182.545 254.184C182.339 254.081 182.108 254.036 181.879 254.055C181.649 254.074 181.428 254.156 181.242 254.291L162.832 265.001C162.339 265.321 161.943 265.769 161.687 266.298C161.431 266.827 161.326 267.416 161.382 268.001L163.912 285.701C163.912 285.933 163.976 286.161 164.098 286.358C164.221 286.556 164.395 286.715 164.603 286.819C164.81 286.923 165.043 286.967 165.274 286.946C165.505 286.925 165.726 286.84 165.912 286.701L184.312 276.001C184.807 275.683 185.204 275.235 185.46 274.705C185.716 274.176 185.82 273.586 185.762 273.001Z" fill="#F36C6C"/>
<path d="M214.203 256.642L211.683 238.932C211.679 238.701 211.612 238.476 211.49 238.281C211.367 238.085 211.193 237.928 210.986 237.824C210.78 237.721 210.549 237.677 210.32 237.696C210.09 237.715 209.869 237.796 209.683 237.932L191.293 248.552C190.8 248.871 190.404 249.32 190.148 249.849C189.892 250.378 189.787 250.967 189.843 251.552L192.373 269.262C192.376 269.492 192.443 269.718 192.566 269.913C192.689 270.108 192.863 270.266 193.069 270.369C193.275 270.472 193.506 270.517 193.736 270.498C193.966 270.479 194.186 270.397 194.373 270.262L212.763 259.642C213.256 259.323 213.652 258.875 213.906 258.345C214.161 257.816 214.263 257.226 214.203 256.642Z" fill="#EBEBEB"/>
<path d="M242.64 240.239L240.12 222.529C240.116 222.299 240.049 222.074 239.926 221.878C239.804 221.683 239.63 221.525 239.423 221.422C239.217 221.319 238.986 221.274 238.757 221.293C238.527 221.312 238.306 221.394 238.12 221.529L219.73 232.149C219.237 232.47 218.842 232.918 218.587 233.447C218.331 233.976 218.225 234.565 218.28 235.149L220.81 252.859C220.813 253.09 220.88 253.315 221.003 253.51C221.126 253.706 221.3 253.864 221.506 253.967C221.712 254.07 221.943 254.114 222.173 254.095C222.403 254.077 222.623 253.995 222.81 253.859L241.2 243.239C241.693 242.921 242.089 242.472 242.343 241.943C242.598 241.413 242.7 240.824 242.64 240.239Z" fill="#EBEBEB"/>
<path d="M271.077 223.841L268.557 206.131C268.554 205.9 268.487 205.675 268.364 205.48C268.241 205.285 268.067 205.127 267.861 205.024C267.655 204.921 267.424 204.876 267.194 204.895C266.964 204.914 266.744 204.995 266.557 205.131L248.167 215.751C247.675 216.071 247.28 216.52 247.024 217.049C246.768 217.578 246.662 218.166 246.717 218.751L249.247 236.461C249.251 236.692 249.318 236.917 249.44 237.112C249.563 237.307 249.737 237.465 249.944 237.568C250.15 237.671 250.381 237.716 250.61 237.697C250.84 237.678 251.061 237.596 251.247 237.461L269.637 226.841C270.131 226.523 270.527 226.074 270.781 225.544C271.035 225.015 271.138 224.425 271.077 223.841Z" fill="#EBEBEB"/>
<path d="M299.523 207.442L297.003 189.732C296.999 189.502 296.932 189.277 296.809 189.081C296.686 188.886 296.512 188.728 296.306 188.625C296.1 188.522 295.869 188.478 295.639 188.496C295.409 188.515 295.189 188.597 295.003 188.732L276.613 199.352C276.12 199.673 275.725 200.122 275.469 200.65C275.214 201.179 275.108 201.768 275.163 202.352L277.693 220.062C277.696 220.293 277.763 220.518 277.886 220.714C278.009 220.909 278.183 221.067 278.389 221.17C278.595 221.273 278.826 221.317 279.056 221.299C279.286 221.28 279.506 221.198 279.693 221.062L298.083 210.442C298.576 210.124 298.972 209.675 299.226 209.146C299.48 208.616 299.583 208.027 299.523 207.442Z" fill="#EBEBEB"/>
<path d="M328.003 191.001L325.483 173.291C325.48 173.06 325.413 172.835 325.29 172.64C325.167 172.445 324.993 172.287 324.787 172.184C324.58 172.081 324.35 172.036 324.12 172.055C323.89 172.074 323.67 172.156 323.483 172.291L305.003 183.001C304.511 183.321 304.116 183.77 303.86 184.299C303.604 184.828 303.498 185.416 303.553 186.001L306.083 203.711C306.087 203.942 306.154 204.167 306.276 204.362C306.399 204.557 306.573 204.715 306.78 204.818C306.986 204.922 307.216 204.966 307.446 204.947C307.676 204.928 307.896 204.847 308.083 204.711L326.513 194.001C327.017 193.69 327.423 193.244 327.687 192.714C327.95 192.184 328.06 191.59 328.003 191.001Z" fill="#EBEBEB"/>
<path d="M356.398 174.64L353.878 156.94C353.874 156.709 353.808 156.484 353.685 156.288C353.562 156.093 353.388 155.935 353.182 155.832C352.975 155.729 352.745 155.685 352.515 155.703C352.285 155.722 352.065 155.804 351.878 155.94L333.488 166.55C332.995 166.869 332.599 167.318 332.343 167.847C332.088 168.376 331.982 168.965 332.038 169.55L334.568 187.26C334.572 187.49 334.639 187.715 334.761 187.911C334.884 188.106 335.058 188.264 335.264 188.367C335.471 188.47 335.701 188.515 335.931 188.496C336.161 188.477 336.381 188.395 336.568 188.26L354.998 177.62C355.482 177.299 355.868 176.851 356.115 176.326C356.362 175.8 356.46 175.217 356.398 174.64Z" fill="#EBEBEB"/>
<path d="M180.823 238.38L178.293 220.68C178.293 220.448 178.229 220.22 178.107 220.023C177.984 219.825 177.81 219.665 177.602 219.562C177.395 219.458 177.162 219.414 176.931 219.435C176.7 219.456 176.479 219.54 176.293 219.68L157.903 230.29C157.408 230.608 157.011 231.056 156.755 231.585C156.5 232.115 156.395 232.705 156.453 233.29L159.003 251C159.003 251.232 159.068 251.459 159.19 251.657C159.312 251.854 159.487 252.014 159.694 252.118C159.902 252.222 160.134 252.265 160.365 252.245C160.597 252.224 160.817 252.139 161.003 252L179.393 241.38C179.886 241.061 180.28 240.612 180.533 240.082C180.785 239.552 180.886 238.963 180.823 238.38Z" fill="#F36C6C"/>
<path d="M209.262 222.001L206.732 204.301C206.732 204.069 206.667 203.841 206.545 203.644C206.423 203.446 206.248 203.287 206.041 203.183C205.833 203.079 205.601 203.035 205.37 203.056C205.138 203.077 204.918 203.161 204.732 203.301L186.342 213.921C185.846 214.237 185.447 214.685 185.191 215.215C184.935 215.745 184.831 216.335 184.892 216.921L187.422 234.621C187.422 234.853 187.486 235.08 187.609 235.278C187.731 235.475 187.905 235.635 188.113 235.739C188.32 235.843 188.553 235.887 188.784 235.866C189.015 235.845 189.236 235.76 189.422 235.621L207.812 225.001C208.308 224.685 208.707 224.236 208.963 223.707C209.219 223.177 209.322 222.586 209.262 222.001Z" fill="#EBEBEB"/>
<path d="M237.699 205.593L235.169 187.883C235.169 187.651 235.105 187.423 234.983 187.226C234.861 187.028 234.686 186.869 234.478 186.765C234.271 186.661 234.038 186.617 233.807 186.638C233.576 186.659 233.355 186.744 233.169 186.883L214.779 197.503C214.283 197.819 213.884 198.267 213.628 198.797C213.372 199.327 213.269 199.917 213.329 200.503L215.859 218.203C215.859 218.435 215.924 218.663 216.046 218.86C216.168 219.057 216.343 219.217 216.55 219.321C216.758 219.425 216.99 219.469 217.222 219.448C217.453 219.427 217.674 219.342 217.859 219.203L236.249 208.593C236.744 208.275 237.141 207.827 237.397 207.297C237.653 206.768 237.758 206.178 237.699 205.593Z" fill="#EBEBEB"/>
<path d="M266.137 189.19L263.607 171.48C263.607 171.248 263.542 171.021 263.42 170.823C263.298 170.626 263.123 170.466 262.916 170.362C262.708 170.259 262.476 170.215 262.245 170.236C262.013 170.256 261.793 170.341 261.607 170.48L243.217 181.1C242.721 181.417 242.322 181.865 242.066 182.395C241.81 182.924 241.706 183.515 241.767 184.1L244.287 201.81C244.29 202.041 244.357 202.266 244.48 202.462C244.603 202.657 244.777 202.815 244.983 202.918C245.19 203.021 245.42 203.065 245.65 203.047C245.88 203.028 246.1 202.946 246.287 202.81L264.677 192.19C265.173 191.874 265.573 191.426 265.83 190.897C266.088 190.367 266.194 189.777 266.137 189.19Z" fill="#EBEBEB"/>
<path d="M294.582 172.792L292.052 155.082C292.052 154.85 291.988 154.622 291.865 154.425C291.743 154.227 291.569 154.068 291.361 153.964C291.154 153.86 290.921 153.816 290.69 153.837C290.459 153.858 290.238 153.943 290.052 154.082L271.662 164.702C271.166 165.018 270.767 165.466 270.511 165.996C270.255 166.526 270.152 167.117 270.212 167.702L272.732 185.412C272.736 185.643 272.803 185.868 272.925 186.063C273.048 186.258 273.222 186.416 273.429 186.519C273.635 186.622 273.865 186.667 274.095 186.648C274.325 186.629 274.546 186.548 274.732 186.412L293.122 175.792C293.62 175.476 294.019 175.029 294.277 174.499C294.535 173.969 294.641 173.378 294.582 172.792Z" fill="#EBEBEB"/>
<path d="M323.003 156.39L320.473 138.68C320.473 138.448 320.409 138.22 320.287 138.023C320.165 137.825 319.99 137.665 319.782 137.562C319.575 137.458 319.342 137.414 319.111 137.435C318.88 137.456 318.659 137.54 318.473 137.68L300.083 148.3C299.588 148.617 299.19 149.065 298.934 149.595C298.678 150.124 298.574 150.714 298.633 151.3L301.163 169C301.167 169.23 301.234 169.456 301.357 169.651C301.479 169.846 301.654 170.004 301.86 170.107C302.066 170.21 302.297 170.255 302.527 170.236C302.757 170.217 302.977 170.135 303.163 170L321.553 159.38C322.047 159.063 322.444 158.617 322.7 158.089C322.956 157.561 323.061 156.973 323.003 156.39Z" fill="#EBEBEB"/>
<path d="M351.464 139.999L348.934 122.289C348.934 122.057 348.87 121.829 348.748 121.632C348.626 121.434 348.451 121.275 348.243 121.171C348.036 121.067 347.803 121.023 347.572 121.044C347.341 121.065 347.12 121.15 346.934 121.289L328.544 131.909C328.049 132.226 327.651 132.674 327.395 133.204C327.139 133.734 327.035 134.324 327.094 134.909L329.614 152.619C329.618 152.85 329.685 153.075 329.808 153.27C329.93 153.465 330.104 153.623 330.311 153.726C330.517 153.829 330.748 153.874 330.978 153.855C331.207 153.836 331.428 153.755 331.614 153.619L350.004 142.999C350.502 142.683 350.902 142.236 351.159 141.706C351.417 141.176 351.523 140.585 351.464 139.999Z" fill="#EBEBEB"/>
<path d="M176.452 207.083L175.812 202.563C175.812 202.33 175.747 202.103 175.625 201.905C175.503 201.708 175.328 201.548 175.121 201.444C174.913 201.341 174.681 201.297 174.449 201.318C174.218 201.338 173.997 201.423 173.812 201.563L155.412 212.202C154.916 212.52 154.518 212.968 154.262 213.497C154.006 214.027 153.902 214.617 153.962 215.202L154.592 219.723C154.595 219.953 154.662 220.178 154.785 220.374C154.908 220.569 155.082 220.727 155.288 220.83C155.494 220.933 155.725 220.977 155.955 220.959C156.185 220.94 156.405 220.858 156.592 220.723L175.002 210.062C175.491 209.745 175.885 209.299 176.141 208.774C176.396 208.249 176.504 207.664 176.452 207.083Z" fill="#E6E6E6"/>
<path d="M204.889 190.68L204.249 186.16C204.249 185.928 204.184 185.7 204.062 185.503C203.94 185.306 203.766 185.146 203.558 185.042C203.35 184.938 203.118 184.894 202.887 184.915C202.656 184.936 202.435 185.021 202.249 185.16L183.849 195.8C183.354 196.117 182.956 196.565 182.7 197.095C182.444 197.625 182.34 198.215 182.399 198.8L183.029 203.32C183.033 203.551 183.1 203.776 183.222 203.971C183.345 204.166 183.519 204.324 183.725 204.427C183.932 204.531 184.162 204.575 184.392 204.556C184.622 204.537 184.842 204.456 185.029 204.32L203.429 193.7C203.927 193.38 204.327 192.929 204.585 192.396C204.843 191.863 204.948 191.269 204.889 190.68Z" fill="#E6E6E6"/>
<path d="M233.334 174.28L232.694 169.76C232.691 169.529 232.624 169.304 232.501 169.109C232.378 168.914 232.204 168.756 231.998 168.653C231.792 168.549 231.561 168.505 231.331 168.524C231.101 168.543 230.881 168.624 230.694 168.76L212.294 179.4C211.799 179.717 211.401 180.165 211.145 180.695C210.889 181.224 210.785 181.815 210.844 182.4L211.474 186.92C211.474 187.152 211.539 187.38 211.661 187.577C211.783 187.774 211.958 187.934 212.165 188.038C212.373 188.142 212.605 188.186 212.837 188.165C213.068 188.144 213.289 188.059 213.474 187.92L231.874 177.3C232.373 176.98 232.773 176.529 233.03 175.996C233.288 175.463 233.393 174.869 233.334 174.28Z" fill="#E6E6E6"/>
<path d="M261.772 157.891L261.132 153.361C261.128 153.131 261.061 152.906 260.939 152.71C260.816 152.515 260.642 152.357 260.436 152.254C260.229 152.151 259.999 152.106 259.769 152.125C259.539 152.144 259.319 152.226 259.132 152.361L240.732 163.001C240.236 163.318 239.838 163.767 239.583 164.296C239.327 164.826 239.222 165.416 239.282 166.001L239.912 170.521C239.912 170.754 239.977 170.981 240.099 171.179C240.221 171.376 240.395 171.536 240.603 171.639C240.811 171.743 241.043 171.787 241.274 171.766C241.505 171.746 241.726 171.661 241.912 171.521L260.312 160.911C260.808 160.59 261.207 160.138 261.465 159.606C261.722 159.073 261.828 158.48 261.772 157.891Z" fill="#E6E6E6"/>
<path d="M290.209 141.489L289.569 136.959C289.565 136.728 289.498 136.503 289.376 136.308C289.253 136.113 289.079 135.955 288.872 135.852C288.666 135.749 288.436 135.704 288.206 135.723C287.976 135.742 287.756 135.824 287.569 135.959L269.169 146.599C268.674 146.917 268.277 147.365 268.021 147.895C267.765 148.424 267.661 149.014 267.719 149.599L268.349 154.119C268.349 154.351 268.413 154.579 268.536 154.776C268.658 154.974 268.832 155.133 269.04 155.237C269.247 155.341 269.48 155.385 269.711 155.364C269.942 155.343 270.163 155.258 270.349 155.119L288.749 144.509C289.245 144.188 289.644 143.736 289.902 143.203C290.159 142.671 290.265 142.078 290.209 141.489Z" fill="#E6E6E6"/>
<path d="M318.654 125.09L318.014 120.57C318.014 120.338 317.949 120.111 317.827 119.913C317.705 119.716 317.531 119.556 317.323 119.452C317.116 119.348 316.883 119.305 316.652 119.325C316.421 119.346 316.2 119.431 316.014 119.57L297.614 130.2C297.119 130.518 296.722 130.967 296.466 131.496C296.21 132.025 296.106 132.615 296.164 133.2L296.794 137.73C296.798 137.961 296.865 138.186 296.987 138.381C297.11 138.577 297.284 138.734 297.491 138.838C297.697 138.941 297.927 138.985 298.157 138.966C298.387 138.947 298.607 138.866 298.794 138.73L317.194 128.11C317.692 127.79 318.091 127.338 318.348 126.805C318.606 126.273 318.712 125.679 318.654 125.09Z" fill="#E6E6E6"/>
<path d="M347.081 108.692L346.451 104.172C346.451 103.94 346.386 103.712 346.264 103.515C346.142 103.317 345.967 103.158 345.76 103.054C345.552 102.95 345.32 102.906 345.088 102.927C344.857 102.948 344.636 103.033 344.451 103.172L326.061 113.792C325.564 114.108 325.166 114.556 324.91 115.086C324.654 115.616 324.55 116.207 324.611 116.792L325.241 121.312C325.244 121.542 325.311 121.768 325.434 121.963C325.557 122.158 325.731 122.316 325.937 122.419C326.143 122.522 326.374 122.567 326.604 122.548C326.834 122.529 327.054 122.447 327.241 122.312L345.641 111.692C346.133 111.373 346.529 110.924 346.783 110.395C347.037 109.865 347.14 109.276 347.081 108.692Z" fill="#E6E6E6"/>
<path opacity="0.2" d="M155.001 180.381C154.911 179.059 155.184 177.738 155.79 176.561C156.396 175.383 157.313 174.394 158.441 173.701C160.681 172.411 162.771 173.301 163.121 175.701C163.214 177.023 162.941 178.346 162.333 179.524C161.724 180.702 160.804 181.691 159.671 182.381C157.441 183.671 155.351 182.781 155.001 180.381Z" fill="black"/>
<path opacity="0.2" d="M183.471 164C183.378 162.679 183.65 161.357 184.256 160.179C184.863 159.001 185.781 158.012 186.911 157.32C189.151 156.02 191.241 156.91 191.591 159.32C191.683 160.642 191.41 161.963 190.801 163.139C190.193 164.315 189.272 165.302 188.141 165.99C185.901 167.24 183.811 166.35 183.471 164Z" fill="black"/>
<path opacity="0.2" d="M211.877 147.551C211.784 146.229 212.056 144.908 212.663 143.73C213.269 142.552 214.187 141.563 215.317 140.871C217.557 139.571 219.657 140.461 219.997 142.871C220.089 144.191 219.817 145.511 219.21 146.687C218.604 147.863 217.686 148.851 216.557 149.541C214.317 150.831 212.217 149.941 211.877 147.551Z" fill="black"/>
<path opacity="0.2" d="M268.744 114.72C268.652 113.399 268.923 112.077 269.53 110.899C270.136 109.721 271.055 108.733 272.184 108.04C274.424 106.75 276.514 107.64 276.854 110.04C276.952 111.363 276.682 112.686 276.075 113.865C275.468 115.043 274.547 116.032 273.414 116.72C271.174 118 269.084 117.12 268.744 114.72Z" fill="black"/>
<path opacity="0.2" d="M297.198 98.301C297.103 96.9791 297.374 95.6566 297.981 94.4783C298.588 93.3 299.507 92.3115 300.638 91.621C302.878 90.321 304.968 91.211 305.318 93.621C305.411 94.9438 305.138 96.2666 304.53 97.4447C303.921 98.6229 303.001 99.611 301.868 100.301C299.628 101.581 297.538 100.691 297.198 98.301Z" fill="black"/>
<path opacity="0.2" d="M325.611 81.8909C325.519 80.5693 325.791 79.2476 326.397 78.0697C327.004 76.8918 327.922 75.903 329.051 75.2109C331.291 73.9109 333.392 74.8009 333.732 77.2109C333.823 78.531 333.551 79.8511 332.945 81.0272C332.338 82.2033 331.42 83.1904 330.292 83.8809C328.002 85.1709 326.001 84.2809 325.611 81.8909Z" fill="black"/>
<path d="M152.058 153.359C149.058 151.609 146.118 151.359 143.878 152.649C141.638 153.939 140.398 156.579 140.398 160.089C140.418 161.731 140.66 163.363 141.118 164.939L142.898 163.939C142.579 162.687 142.411 161.401 142.398 160.109C142.398 157.349 143.278 155.319 144.878 154.399C145.535 154.033 146.277 153.846 147.028 153.859C148.447 153.927 149.824 154.357 151.028 155.109C156.348 158.189 160.678 165.689 160.678 171.829C160.681 172.267 160.658 172.704 160.608 173.139C160.584 174.01 160.354 174.863 159.937 175.627C159.519 176.392 158.927 177.047 158.208 177.539C157.292 178.034 156.234 178.204 155.208 178.019C155.007 178.666 154.922 179.343 154.958 180.019C155.332 180.079 155.71 180.109 156.088 180.109C157.19 180.123 158.274 179.84 159.228 179.289C160.121 178.729 160.878 177.978 161.444 177.088C162.009 176.199 162.37 175.195 162.498 174.149C162.633 173.39 162.7 172.62 162.698 171.849C162.708 164.999 157.928 156.749 152.058 153.359Z" fill="#F5F5F5"/>
<path d="M180.519 136.941C177.519 135.191 174.579 134.941 172.339 136.231C170.099 137.521 168.859 140.161 168.859 143.671C168.879 145.313 169.121 146.945 169.579 148.521L171.359 147.521C171.04 146.269 170.872 144.983 170.859 143.691C170.859 140.931 171.739 138.901 173.339 137.981C173.996 137.615 174.738 137.428 175.489 137.441C176.908 137.509 178.285 137.939 179.489 138.691C184.809 141.771 189.139 149.271 189.139 155.411C189.142 155.849 189.119 156.287 189.069 156.721C189.045 157.592 188.815 158.445 188.398 159.209C187.98 159.974 187.388 160.629 186.669 161.121C185.753 161.617 184.695 161.786 183.669 161.601C183.467 162.248 183.383 162.925 183.419 163.601C183.793 163.661 184.171 163.691 184.549 163.691C185.651 163.705 186.735 163.422 187.689 162.871C188.582 162.311 189.339 161.56 189.905 160.67C190.47 159.781 190.831 158.777 190.959 157.731C191.094 156.972 191.161 156.202 191.159 155.431C191.169 148.611 186.389 140.331 180.519 136.941Z" fill="#F5F5F5"/>
<path d="M208.933 120.531C205.933 118.781 202.993 118.531 200.753 119.821C198.513 121.111 197.273 123.751 197.273 127.261C197.293 128.903 197.535 130.535 197.993 132.111L199.773 131.111C199.454 129.859 199.286 128.573 199.273 127.281C199.273 124.521 200.153 122.491 201.753 121.571C202.41 121.205 203.152 121.018 203.903 121.031C205.322 121.099 206.699 121.529 207.903 122.281C213.223 125.361 217.553 132.861 217.553 139.001C217.556 139.439 217.533 139.876 217.483 140.311C217.459 141.182 217.229 142.035 216.812 142.799C216.394 143.564 215.802 144.219 215.083 144.711C214.167 145.206 213.109 145.376 212.083 145.191C211.882 145.838 211.797 146.515 211.833 147.191C212.207 147.251 212.585 147.281 212.963 147.281C214.065 147.295 215.149 147.012 216.103 146.461C216.996 145.901 217.753 145.149 218.319 144.26C218.884 143.371 219.245 142.367 219.373 141.321C219.508 140.562 219.575 139.792 219.573 139.021C219.583 132.201 214.803 123.921 208.933 120.531Z" fill="#F5F5F5"/>
<path d="M265.801 87.75C262.801 86 259.861 85.75 257.621 87.04C255.381 88.33 254.141 90.97 254.141 94.48C254.16 96.1218 254.402 97.7533 254.861 99.33L256.641 98.33C256.321 97.078 256.153 95.7921 256.141 94.5C256.141 91.74 257.021 89.71 258.621 88.79C259.277 88.4234 260.019 88.2371 260.771 88.25C262.189 88.3176 263.566 88.748 264.771 89.5C270.091 92.58 274.421 100.08 274.421 106.22C274.424 106.658 274.4 107.095 274.351 107.53C274.326 108.401 274.096 109.253 273.679 110.018C273.262 110.783 272.669 111.438 271.951 111.93C271.034 112.425 269.976 112.594 268.951 112.41C268.749 113.056 268.664 113.734 268.701 114.41C269.074 114.469 269.452 114.499 269.831 114.5C270.932 114.514 272.017 114.23 272.971 113.68C273.863 113.12 274.62 112.368 275.186 111.479C275.751 110.59 276.112 109.586 276.241 108.54C276.375 107.781 276.442 107.011 276.441 106.24C276.451 99.42 271.671 91.14 265.801 87.75Z" fill="#F5F5F5"/>
<path d="M294.262 71.3203C291.262 69.5703 288.322 69.3203 286.082 70.6103C283.842 71.9003 282.602 74.5403 282.602 78.0503C282.621 79.6921 282.863 81.3236 283.322 82.9003L285.102 81.9003C284.782 80.6483 284.614 79.3624 284.602 78.0703C284.602 75.3103 285.482 73.2803 287.082 72.3603C287.738 71.9937 288.48 71.8074 289.232 71.8203C290.65 71.8879 292.027 72.3183 293.232 73.0703C298.552 76.1503 302.882 83.6503 302.882 89.7903C302.885 90.228 302.861 90.6654 302.812 91.1003C302.787 91.971 302.557 92.8236 302.14 93.5884C301.723 94.3531 301.13 95.0083 300.412 95.5003C299.495 95.9954 298.437 96.1647 297.412 95.9803C297.21 96.6267 297.125 97.304 297.162 97.9803C297.535 98.0396 297.913 98.0697 298.292 98.0703C299.393 98.084 300.478 97.8007 301.432 97.2503C302.324 96.6904 303.081 95.9385 303.647 95.0494C304.212 94.1602 304.573 93.1562 304.702 92.1103C304.836 91.3511 304.903 90.5814 304.902 89.8103C304.912 83.0003 300.132 74.7103 294.262 71.3203Z" fill="#F5F5F5"/>
<path d="M322.67 54.9101C319.67 53.1601 316.73 52.9101 314.49 54.2001C312.25 55.4901 311 58.1301 311 61.6401C311.02 63.2819 311.262 64.9135 311.72 66.4901L313.5 65.4901C313.18 64.2381 313.013 62.9522 313 61.6601C313 58.9001 313.88 56.8701 315.48 55.9501C316.136 55.5835 316.878 55.3972 317.63 55.4101C319.048 55.4778 320.426 55.9082 321.63 56.6601C326.95 59.7401 331.28 67.2401 331.28 73.3801C331.283 73.8178 331.26 74.2553 331.21 74.6901C331.186 75.5609 330.955 76.4135 330.538 77.1782C330.121 77.9429 329.529 78.5981 328.81 79.0901C327.893 79.5853 326.835 79.7545 325.81 79.5701C325.608 80.2166 325.523 80.8939 325.56 81.5701C325.934 81.6295 326.312 81.6596 326.69 81.6601C327.791 81.6738 328.876 81.3906 329.83 80.8401C330.723 80.2802 331.48 79.5284 332.045 78.6392C332.611 77.7501 332.971 76.746 333.1 75.7001C333.235 74.9409 333.302 74.1712 333.3 73.4001C333.32 66.5801 328.54 58.3001 322.67 54.9101Z" fill="#F5F5F5"/>
<path d="M352.216 315L345.496 326.67C345.054 327.399 344.921 328.274 345.124 329.102C345.328 329.93 345.852 330.643 346.581 331.085C347.31 331.526 348.185 331.66 349.013 331.456C349.841 331.253 350.554 330.729 350.996 330L357.756 318.26C358.406 317.14 357.706 315.51 356.186 314.63C354.666 313.75 352.866 313.91 352.216 315Z" fill="#455A64"/>
<path d="M405.7 294.451L417.37 301.171C417.729 301.393 418.128 301.541 418.545 301.607C418.961 301.673 419.387 301.656 419.797 301.556C420.207 301.456 420.593 301.276 420.932 301.025C421.272 300.775 421.558 300.459 421.774 300.097C421.99 299.735 422.133 299.333 422.192 298.915C422.252 298.498 422.227 298.072 422.121 297.664C422.014 297.256 421.828 296.873 421.572 296.537C421.316 296.202 420.996 295.921 420.63 295.71L408.89 289.001C407.77 288.351 406.14 289.051 405.26 290.571C404.38 292.091 404.58 293.801 405.7 294.451Z" fill="#455A64"/>
<path d="M418.633 241.841H418.573L390.143 225.431H390.063C383.823 221.881 375.223 222.431 365.733 227.891C346.663 238.891 331.203 265.681 331.203 287.701C331.203 298.701 335.053 306.391 341.263 310.011H341.313L369.743 326.431H369.813C376.053 330.001 384.663 329.431 394.163 323.981C413.223 312.981 428.683 286.191 428.683 264.181C428.683 253.181 424.843 245.461 418.633 241.841Z" fill="#F36C6C"/>
<path opacity="0.1" d="M369.282 326.101L341.282 309.961H341.222C335.012 306.331 331.172 298.611 331.172 287.651C331.172 277.831 334.252 267.071 339.342 257.191L367.772 273.601C362.672 283.481 359.602 294.241 359.602 304.061C359.622 314.761 363.302 322.381 369.282 326.101Z" fill="black"/>
<path opacity="0.4" d="M418.57 298.175C432.054 274.82 432.054 249.577 418.571 241.792C405.088 234.008 383.227 246.63 369.743 269.985C356.259 293.34 356.258 318.584 369.741 326.368C383.224 334.153 405.086 321.53 418.57 298.175Z" fill="white"/>
<path d="M378.733 321.668C367.813 321.668 366.633 309.328 366.633 304.018C366.633 284.598 380.843 260.018 397.633 250.278C401.913 247.808 406.033 246.508 409.553 246.508C420.473 246.508 421.653 258.848 421.653 264.158C421.653 283.578 407.443 308.158 390.653 317.898C386.363 320.368 382.243 321.668 378.733 321.668Z" fill="#FAFAFA"/>
<path d="M386.496 306.59C386.443 306.599 386.389 306.599 386.336 306.59C386.211 306.544 386.109 306.452 386.051 306.333C385.993 306.213 385.984 306.076 386.026 305.95L393.676 284.1C393.72 283.974 393.812 283.87 393.932 283.812C394.052 283.754 394.19 283.746 394.316 283.79C394.442 283.833 394.545 283.925 394.603 284.045C394.662 284.165 394.67 284.304 394.626 284.43L386.996 306.25C386.963 306.354 386.895 306.444 386.805 306.506C386.714 306.568 386.605 306.597 386.496 306.59Z" fill="#F36C6C"/>
<path d="M405.616 290.691C405.413 290.695 405.212 290.654 405.026 290.571L392.656 285.221V262.781C392.656 262.383 392.814 262.002 393.096 261.721C393.377 261.439 393.758 261.281 394.156 261.281C394.554 261.281 394.936 261.439 395.217 261.721C395.498 262.002 395.656 262.383 395.656 262.781V283.251L406.216 287.821C406.529 287.961 406.785 288.203 406.941 288.508C407.097 288.813 407.144 289.163 407.074 289.498C407.004 289.834 406.821 290.135 406.556 290.352C406.29 290.569 405.959 290.689 405.616 290.691Z" fill="#37474F"/>
<path d="M394.156 279.398C396.396 278.098 398.216 279.148 398.216 281.738C398.133 283.14 397.722 284.504 397.017 285.72C396.312 286.935 395.332 287.969 394.156 288.738C391.906 290.038 390.086 288.988 390.086 286.388C390.172 284.986 390.585 283.623 391.291 282.41C391.998 281.196 392.979 280.164 394.156 279.398Z" fill="#F36C6C"/>
<path d="M361.121 263.301C356.221 271.771 346.991 275.611 340.051 271.601C335.98 269.247 333.011 265.372 331.797 260.829C330.582 256.286 331.223 251.447 333.576 247.376C335.93 243.304 339.805 240.335 344.348 239.121C348.891 237.907 353.73 238.547 357.801 240.901C364.721 245.001 366.001 254.821 361.121 263.301Z" fill="#455A64"/>
<path d="M340.05 271.601C346.99 275.601 356.22 271.771 361.12 263.301C362.215 261.402 363.027 259.354 363.53 257.221C363.25 257.591 355.09 267.991 344.95 265.061C334.63 262.061 332.69 254.131 333.58 247.371C332.413 249.387 331.655 251.613 331.349 253.921C331.043 256.23 331.195 258.576 331.795 260.826C332.396 263.077 333.435 265.186 334.851 267.035C336.267 268.884 338.034 270.435 340.05 271.601Z" fill="#37474F"/>
<path d="M337.2 245.648L331.94 242.648C331.581 242.426 331.182 242.277 330.765 242.211C330.348 242.145 329.923 242.162 329.513 242.262C329.103 242.362 328.717 242.543 328.378 242.793C328.038 243.044 327.752 243.359 327.536 243.722C327.319 244.084 327.177 244.486 327.118 244.903C327.058 245.321 327.082 245.746 327.189 246.154C327.295 246.563 327.482 246.946 327.738 247.281C327.994 247.616 328.314 247.898 328.68 248.108L334 251.188C335.13 251.838 336.76 251.138 337.64 249.618C338.52 248.098 338.32 246.298 337.2 245.648Z" fill="#F36C6C"/>
<path d="M415.657 220.28L418.657 215.03C418.879 214.671 419.028 214.272 419.094 213.855C419.16 213.438 419.143 213.012 419.043 212.603C418.943 212.193 418.762 211.807 418.512 211.467C418.261 211.128 417.946 210.842 417.584 210.625C417.221 210.409 416.82 210.267 416.402 210.208C415.984 210.148 415.559 210.172 415.151 210.279C414.743 210.385 414.36 210.572 414.024 210.828C413.689 211.084 413.408 211.404 413.197 211.77L410.117 217.09C409.467 218.21 410.117 219.84 411.687 220.72C413.257 221.6 414.997 221.41 415.657 220.28Z" fill="#F36C6C"/>
<path d="M390.25 222.448C391.415 220.429 392.967 218.659 394.817 217.24C396.666 215.82 398.777 214.779 401.029 214.176C403.281 213.572 405.629 213.418 407.941 213.722C410.252 214.026 412.481 214.782 414.5 215.948C416.519 217.113 418.289 218.665 419.708 220.515C421.128 222.364 422.169 224.475 422.772 226.727C423.376 228.979 423.53 231.327 423.226 233.639C422.922 235.95 422.165 238.179 421 240.198L390.25 222.448Z" fill="#455A64"/>
<path d="M417.103 217.84C418.103 219.93 420.823 228.78 417.103 230.98C413.383 233.18 396.203 225.88 396.203 225.88L421.003 240.2C423.069 236.605 423.81 232.399 423.097 228.314C422.385 224.23 420.264 220.524 417.103 217.84Z" fill="#37474F"/>
<path d="M304.873 268.512C287.173 244.722 281.353 242.072 278.023 241.262L283.863 257.262L296.003 272.832" fill="#FFA8A7"/>
<path d="M276.289 241.001C276.289 241.001 280.049 239.861 285.489 245.191C290.929 250.521 297.489 258.291 297.489 258.291C297.489 258.291 295.719 264.641 290.189 266.611L282.189 258.291L276.289 241.001Z" fill="#F36C6C"/>
<path opacity="0.1" d="M276.289 241.001C276.289 241.001 280.049 239.861 285.489 245.191C290.929 250.521 297.489 258.291 297.489 258.291C297.489 258.291 295.719 264.641 290.189 266.611L282.189 258.291L276.289 241.001Z" fill="black"/>
<path d="M279.736 227.837C285.197 226.548 288.579 221.076 287.29 215.615C286.001 210.154 280.529 206.772 275.068 208.061C269.607 209.35 266.225 214.822 267.514 220.283C268.802 225.744 274.275 229.126 279.736 227.837Z" fill="#263238"/>
<path d="M253.082 402.121H260.242V389.871H253.082V402.121Z" fill="#FFA8A7"/>
<path d="M276.422 393.22L283.572 393.47L283.932 380.5L276.772 380.25L276.422 393.22Z" fill="#FFA8A7"/>
<path d="M253.544 292.74V342.25C253.374 344.25 251.924 347.62 251.544 355.99C251.064 366.26 252.634 394.52 252.634 394.52C252.634 394.52 255.984 397.85 260.724 394.52C260.724 394.52 267.074 354.18 268.364 344.01C269.484 335.13 271.364 311.01 271.364 311.01L275.644 347.34C275.644 347.34 274.474 354.01 274.224 358.71C273.974 363.41 276.284 388.54 276.284 388.54C277.444 389.265 278.774 389.673 280.141 389.724C281.507 389.775 282.864 389.467 284.074 388.83C284.074 388.83 288.974 351.18 289.714 346.93C290.454 342.68 287.024 292.73 287.024 292.73L253.544 292.74Z" fill="#37474F"/>
<path d="M260.419 243.292C259.417 243.43 258.429 243.661 257.469 243.982C255.469 244.752 254.599 247.172 254.129 249.302C253.736 251.088 253.538 252.912 253.539 254.742V292.742C258.539 298.202 276.059 300.742 287.019 292.742C287.019 292.742 286.809 259.182 286.019 253.662C284.589 244.082 280.019 240.662 275.399 241.022L264.349 242.602L260.419 243.292Z" fill="#F36C6C"/>
<path d="M259.844 225.16C259.844 225.16 261.494 232.89 262.154 234.16C262.59 234.94 263.304 235.525 264.154 235.8L264.034 230.35L259.844 225.16Z" fill="#263238"/>
<path d="M261.916 214.072C261.339 214.006 260.756 214.072 260.208 214.264C259.661 214.456 259.164 214.77 258.756 215.182C257.406 216.572 258.166 220.912 259.846 225.182L262.956 225.532L261.916 214.072Z" fill="#263238"/>
<path d="M263.884 225.509C263.254 225.889 262.374 224.689 261.604 223.889C260.834 223.089 258.334 221.989 257.084 224.619C255.834 227.249 258.184 230.849 260.154 231.469C263.554 232.529 264.064 230.349 264.064 230.349L264.324 242.609C265.075 244.253 266.221 245.686 267.661 246.778C269.101 247.871 270.789 248.589 272.574 248.869C278.574 249.679 277.354 244.719 275.374 242.279V238.549C276.888 238.792 278.424 238.873 279.954 238.789C282.454 238.399 284.024 236.429 284.784 233.729C286.004 229.379 286.464 225.879 285.434 217.329C284.294 207.969 273.434 207.869 267.524 211.569C261.614 215.269 263.884 225.509 263.884 225.509Z" fill="#FFA8A7"/>
<path d="M263.882 226.561C263.562 226.561 262.372 224.561 261.602 223.891C260.532 222.891 261.912 214.071 261.912 214.071C261.625 213.309 261.568 212.481 261.745 211.687C261.923 210.893 262.328 210.168 262.912 209.601C264.372 207.981 266.832 207.811 271.022 207.151C273.222 206.801 276.562 206.151 278.762 205.781C281.382 205.291 283.552 204.781 285.402 206.381C286.132 207.008 286.648 207.846 286.879 208.78C287.11 209.714 287.045 210.696 286.692 211.591C286.501 212.001 286.248 212.378 285.942 212.711C285.412 213.301 285.322 214.101 284.572 214.341C284.572 214.341 282.982 215.781 279.002 216.261C275.337 216.535 271.654 216.465 268.002 216.051C266.842 215.891 266.532 216.261 265.912 219.311C265.382 222.001 264.932 226.541 263.882 226.561Z" fill="#263238"/>
<path d="M261.924 214.76L258.164 212.76C258.283 212.506 258.452 212.279 258.662 212.094C258.871 211.908 259.116 211.767 259.382 211.679C259.648 211.591 259.929 211.558 260.207 211.582C260.486 211.606 260.757 211.687 261.004 211.82C261.503 212.101 261.875 212.561 262.046 213.107C262.217 213.654 262.173 214.244 261.924 214.76Z" fill="#263238"/>
<path d="M275.361 238.55C275.361 238.55 269.791 237.43 267.841 236.39C266.693 235.796 265.752 234.869 265.141 233.73C265.438 234.868 265.958 235.935 266.671 236.87C268.101 238.69 275.361 240.04 275.361 240.04V238.55Z" fill="#F28F8F"/>
<path d="M274.38 225.14C274.372 225.36 274.3 225.573 274.172 225.751C274.044 225.93 273.867 226.068 273.662 226.146C273.456 226.225 273.232 226.241 273.018 226.194C272.803 226.146 272.608 226.037 272.455 225.878C272.302 225.72 272.199 225.521 272.159 225.305C272.119 225.089 272.144 224.865 272.23 224.663C272.315 224.461 272.459 224.288 272.642 224.167C272.825 224.045 273.04 223.981 273.26 223.98C273.41 223.982 273.558 224.013 273.696 224.072C273.834 224.131 273.959 224.218 274.063 224.326C274.168 224.434 274.249 224.561 274.304 224.701C274.358 224.841 274.384 224.99 274.38 225.14Z" fill="#263238"/>
<path d="M273.196 220.93L270.806 222.24C270.638 221.912 270.603 221.532 270.707 221.178C270.811 220.825 271.047 220.525 271.366 220.34C271.524 220.254 271.698 220.202 271.876 220.185C272.055 220.169 272.236 220.189 272.407 220.244C272.578 220.299 272.736 220.388 272.872 220.506C273.007 220.624 273.117 220.768 273.196 220.93Z" fill="#263238"/>
<path d="M274.864 231.84L277.414 232.84C277.359 233.011 277.27 233.169 277.153 233.305C277.035 233.441 276.891 233.551 276.729 233.63C276.567 233.708 276.391 233.753 276.212 233.762C276.032 233.77 275.853 233.743 275.684 233.68C275.508 233.614 275.347 233.515 275.211 233.386C275.074 233.258 274.964 233.104 274.888 232.932C274.811 232.761 274.77 232.576 274.766 232.388C274.762 232.201 274.795 232.014 274.864 231.84Z" fill="#F28F8F"/>
<path d="M284.344 221.86L282.164 220.18C282.266 220.032 282.398 219.906 282.55 219.81C282.703 219.715 282.873 219.652 283.051 219.624C283.229 219.597 283.411 219.607 283.585 219.652C283.759 219.698 283.922 219.779 284.064 219.89C284.355 220.119 284.547 220.452 284.599 220.819C284.651 221.186 284.56 221.559 284.344 221.86Z" fill="#263238"/>
<path d="M283.672 224.829C283.674 224.979 283.647 225.127 283.592 225.266C283.537 225.404 283.455 225.531 283.351 225.638C283.247 225.745 283.123 225.83 282.986 225.889C282.848 225.947 282.701 225.978 282.552 225.979C282.32 225.987 282.092 225.926 281.895 225.803C281.699 225.68 281.544 225.501 281.451 225.289C281.357 225.078 281.329 224.843 281.37 224.615C281.411 224.387 281.519 224.177 281.681 224.011C281.842 223.845 282.05 223.731 282.276 223.684C282.503 223.637 282.739 223.659 282.953 223.747C283.167 223.835 283.35 223.985 283.478 224.178C283.606 224.371 283.673 224.598 283.672 224.829Z" fill="#263238"/>
<path d="M277.625 222.742L277.995 229.462L281.505 228.272L277.625 222.742Z" fill="#F28F8F"/>
<path d="M260.236 398.59V397.59C260.926 397.88 262.516 403.96 265.356 406.59C267.616 408.65 270.696 411.02 271.476 413.32C272.256 415.62 267.186 417.03 265.076 416.65C262.626 416.22 258.376 414.49 257.316 412.89C256.256 411.29 255.746 408.89 254.876 407.76C254.006 406.63 252.016 405.28 251.546 403.92C251.404 402.652 251.544 401.368 251.956 400.16C252.286 398.9 252.646 397.51 253.076 397.63C253.076 397.78 253.076 398.41 253.076 398.41C254.099 399.205 255.36 399.631 256.656 399.62C257.706 399.6 260.246 399.39 260.236 398.59Z" fill="#263238"/>
<path d="M283.642 391.259C284.022 391.259 284.322 391.799 285.142 392.689C286.37 393.916 287.792 394.93 289.352 395.689C292.032 397.039 297.242 399.099 299.602 400.159C301.072 400.829 301.002 402.609 299.482 403.619C297.962 404.629 294.282 405.359 289.872 404.369C287.462 403.839 284.332 401.609 282.352 401.729C280.372 401.849 276.662 401.829 275.202 400.819C273.742 399.809 274.322 397.659 274.732 395.819C275.182 393.819 275.832 390.709 276.502 390.819V391.459C277.372 392.759 281.752 393.289 283.642 392.339V391.259Z" fill="#263238"/>
<path d="M271.359 310.999C275.071 309.853 278.486 307.903 281.359 305.289C281.359 305.289 279.439 308.889 273.719 312.239L273.839 331.749L271.359 310.999Z" fill="#263238"/>
<path d="M257.793 310.699C256.613 309.699 255.873 308.409 254.093 307.099C252.803 306.303 251.723 305.209 250.943 303.909C249.943 302.229 248.943 296.629 248.643 291.309C248.464 285.368 249.299 279.44 251.113 273.779C253.543 267.069 258.473 258.069 260.113 254.269C261.753 250.469 260.873 248.559 259.403 246.629C257.683 244.369 254.493 244.359 251.483 249.509C247.473 256.668 244.273 264.252 241.943 272.119C240.372 278.006 239.787 284.112 240.213 290.189C240.543 295.819 241.773 300.119 243.353 305.529C243.793 306.999 243.743 308.199 244.243 311.109C244.374 312.325 244.684 313.514 245.163 314.639C245.841 315.991 246.706 317.24 247.733 318.349C249.034 319.758 250.687 320.794 252.523 321.349C253.532 321.65 254.597 321.708 255.633 321.519C256.674 321.332 257.614 320.778 258.283 319.959C258.423 319.796 258.519 319.6 258.563 319.389C258.559 319.016 258.412 318.658 258.153 318.389C256.732 316.725 255.397 314.989 254.153 313.189C253.233 311.639 252.793 310.409 253.153 310.479C253.513 310.549 253.983 311.479 255.323 312.319C256.663 313.159 258.323 313.129 258.713 312.379C259.103 311.629 259.003 311.719 257.793 310.699Z" fill="#FFA8A7"/>
<path d="M258.279 243.75C255.419 243.92 252.819 244.56 249.959 250.23C247.099 255.9 242.609 266.52 242.609 266.52C243.693 268.46 245.281 270.07 247.205 271.181C249.129 272.292 251.318 272.861 253.539 272.83C253.539 272.83 260.119 259.09 261.189 255.47C262.259 251.85 262.999 246 258.279 243.75Z" fill="#F36C6C"/>
<path opacity="0.1" d="M258.279 243.75C255.419 243.92 252.819 244.56 249.959 250.23C247.099 255.9 242.609 266.52 242.609 266.52C243.693 268.46 245.281 270.07 247.205 271.181C249.129 272.292 251.318 272.861 253.539 272.83C253.539 272.83 260.119 259.09 261.189 255.47C262.259 251.85 262.999 246 258.279 243.75Z" fill="black"/>
<path d="M296.004 272.832C295.354 274.732 289.114 280.522 284.524 282.362C283.437 282.737 282.268 282.806 281.144 282.562C280.068 282.11 278.911 281.885 277.744 281.902C276.404 282.022 275.044 282.282 273.694 282.442C273.413 282.451 273.137 282.519 272.884 282.642C272.064 283.092 272.534 283.782 273.184 284.032C274.232 284.409 275.304 284.713 276.394 284.942V285.232C273.602 286.208 270.687 286.793 267.734 286.972C267.209 286.977 266.701 287.152 266.284 287.472C266.115 287.662 265.996 287.891 265.938 288.14C265.88 288.388 265.886 288.646 265.954 288.892C266.094 289.378 266.332 289.831 266.654 290.222C267.86 292.046 269.735 293.321 271.874 293.772C274.036 293.937 276.21 293.665 278.264 292.972C279.258 292.692 280.238 292.382 281.204 292.042C284.035 291 286.791 289.767 289.454 288.352C295.158 285.358 300.449 281.637 305.194 277.282C308.074 274.472 307.364 271.772 304.944 268.512" fill="#FFA8A7"/>
<path d="M283.852 282.541C283.852 282.541 284.852 282.171 285.992 284.001C287.132 285.831 287.852 289.171 286.422 289.831C286.914 289.859 287.405 289.759 287.847 289.54C288.289 289.321 288.666 288.99 288.942 288.581C289.235 287.277 289.154 285.917 288.709 284.657C288.263 283.398 287.47 282.29 286.422 281.461C285.459 281.481 284.54 281.868 283.852 282.541Z" fill="#37474F"/>
<path d="M289.14 283.213C289.354 283.575 289.456 283.992 289.432 284.412C289.408 284.832 289.26 285.235 289.006 285.57C288.753 285.906 288.405 286.158 288.008 286.295C287.61 286.433 287.181 286.449 286.774 286.341C286.368 286.234 286.002 286.008 285.724 285.693C285.447 285.377 285.269 284.986 285.214 284.569C285.158 284.153 285.229 283.729 285.415 283.352C285.601 282.975 285.896 282.662 286.26 282.453C286.743 282.173 287.317 282.095 287.857 282.238C288.397 282.38 288.858 282.731 289.14 283.213Z" fill="#F36C6C"/>
<path d="M288.65 283.489C288.806 283.756 288.878 284.064 288.859 284.372C288.84 284.681 288.729 284.977 288.541 285.222C288.354 285.468 288.097 285.652 287.804 285.752C287.511 285.851 287.196 285.861 286.897 285.781C286.599 285.701 286.331 285.534 286.127 285.301C285.924 285.068 285.794 284.78 285.755 284.473C285.716 284.166 285.768 283.855 285.906 283.578C286.044 283.302 286.261 283.072 286.53 282.919C286.707 282.817 286.902 282.751 287.104 282.724C287.306 282.698 287.511 282.711 287.708 282.764C287.905 282.817 288.09 282.908 288.251 283.033C288.413 283.157 288.548 283.312 288.65 283.489Z" fill="#FAFAFA"/>
</svg>
