<svg width="474" height="474" viewBox="0 0 474 474" fill="none" xmlns="http://www.w3.org/2000/svg">
<path d="M450.684 290.417C445.944 284.255 435.564 283.241 422.244 286.549C437.147 264.167 445.518 236.438 448.485 211.278C454.893 157.014 438.228 92.6642 399.018 52.4121C397.009 50.3581 394.948 48.3673 392.837 46.4397C364.625 20.8437 323.851 8.51974 286.472 7.62862C270.09 7.29354 253.724 8.84584 237.697 12.2549C219.651 15.9033 202.296 22.3857 186.278 31.4613C176.798 19.2701 138.195 33.2246 100.057 62.6695C61.919 92.1144 38.6076 125.958 48.0687 138.216C54.7047 146.852 75.8451 142.472 101.09 128.849C94.4543 140.026 88.3587 149.592 81.9218 156.104C52.6665 185.691 8.51812 234.836 30.635 309.908C47.4335 366.987 93.203 414.273 161.241 424.218C168.957 425.342 176.737 425.975 184.533 426.114C200.468 426.343 216.38 424.839 231.99 421.63C268.962 414.216 292.586 403.475 309.963 391.294C310.289 393.425 311.139 395.441 312.437 397.162C323.245 411.164 362.947 398.612 401.123 369.148C439.299 339.685 461.482 304.409 450.684 290.417Z" fill="#D96220"/>
<path opacity="0.7" d="M450.684 290.417C445.944 284.255 435.564 283.241 422.244 286.549C437.147 264.167 445.518 236.438 448.485 211.278C454.893 157.014 438.228 92.6642 399.018 52.4121C397.009 50.3581 394.948 48.3673 392.837 46.4397C364.625 20.8437 323.851 8.51974 286.472 7.62862C270.09 7.29354 253.724 8.84584 237.697 12.2549C219.651 15.9033 202.296 22.3857 186.278 31.4613C176.798 19.2701 138.195 33.2246 100.057 62.6695C61.919 92.1144 38.6076 125.958 48.0687 138.216C54.7047 146.852 75.8451 142.472 101.09 128.849C94.4543 140.026 88.3587 149.592 81.9218 156.104C52.6665 185.691 8.51812 234.836 30.635 309.908C47.4335 366.987 93.203 414.273 161.241 424.218C168.957 425.342 176.737 425.975 184.533 426.114C200.468 426.343 216.38 424.839 231.99 421.63C268.962 414.216 292.586 403.475 309.963 391.294C310.289 393.425 311.139 395.441 312.437 397.162C323.245 411.164 362.947 398.612 401.123 369.148C439.299 339.685 461.482 304.409 450.684 290.417Z" fill="white"/>
<path d="M329.165 310.591C380.092 259.664 380.092 177.095 329.165 126.168C278.237 75.2408 195.668 75.2408 144.741 126.168C93.8143 177.095 93.8143 259.664 144.741 310.591C195.668 361.518 278.237 361.518 329.165 310.591Z" fill="#263238"/>
<path d="M237 349.262C164.829 349.262 106.119 290.543 106.119 218.382C106.119 146.22 164.781 87.4912 237 87.4912C309.219 87.4912 367.824 146.21 367.824 218.382C367.824 290.553 309.124 349.262 237 349.262ZM237 88.4392C165.35 88.4392 107.067 146.732 107.067 218.382C107.067 290.031 165.303 348.314 237 348.314C308.697 348.314 366.876 290.022 366.876 218.382C366.876 146.741 308.593 88.4392 237 88.4392Z" fill="#263238"/>
<path d="M329.168 306.698C380.095 255.771 380.095 173.202 329.168 122.275C278.241 71.3482 195.672 71.3482 144.745 122.275C93.818 173.202 93.818 255.771 144.745 306.698C195.672 357.625 278.241 357.625 329.168 306.698Z" fill="white"/>
<path d="M237 345.366C164.829 345.366 106.119 286.657 106.119 214.485C106.119 142.314 164.781 83.6045 237 83.6045C309.219 83.6045 367.824 142.314 367.824 214.485C367.824 286.657 309.124 345.366 237 345.366ZM237 84.5525C165.35 84.5525 107.067 142.836 107.067 214.485C107.067 286.135 165.303 344.418 237 344.418C308.697 344.418 366.876 286.126 366.876 214.485C366.876 142.845 308.593 84.5525 237 84.5525Z" fill="#263238"/>
<path d="M304.174 285.601C341.3 248.475 341.3 188.283 304.174 151.158C267.049 114.033 206.857 114.033 169.731 151.158C132.606 188.283 132.606 248.475 169.731 285.601C206.857 322.726 267.049 322.726 304.174 285.601Z" fill="white"/>
<path d="M237 313.911C218.101 313.923 199.624 308.329 183.905 297.837C168.186 287.346 155.931 272.428 148.692 254.971C141.452 237.513 139.552 218.301 143.233 199.765C146.914 181.228 156.01 164.199 169.37 150.832C182.73 137.465 199.754 128.361 218.289 124.671C236.824 120.981 256.037 122.871 273.498 130.102C290.959 137.333 305.882 149.58 316.382 165.294C326.881 181.008 332.484 199.483 332.482 218.381C332.452 243.7 322.385 267.974 304.486 285.881C286.587 303.789 262.319 313.869 237 313.911ZM237 123.79C218.291 123.788 200.002 129.334 184.445 139.727C168.888 150.12 156.763 164.892 149.602 182.176C142.441 199.46 140.567 218.48 144.215 236.83C147.864 255.179 156.872 272.035 170.101 285.264C183.329 298.494 200.184 307.504 218.533 311.155C236.882 314.805 255.902 312.933 273.187 305.773C290.472 298.614 305.245 286.49 315.64 270.935C326.034 255.379 331.582 237.09 331.582 218.381C331.554 193.304 321.581 169.262 303.85 151.529C286.118 133.796 262.077 123.82 237 123.79Z" fill="#263238"/>
<path d="M274.825 140.124C246.632 130.369 207.612 141.252 192.444 149.888C192.444 149.888 150.144 171.578 145.812 213.869C141.48 256.159 172.887 296.288 230.364 307.152C287.841 318.016 326.88 261.648 326.88 221.481C326.88 181.314 303.019 149.888 274.825 140.124ZM242.745 239.218C228.354 240.583 218.097 231.634 220.808 219.31C221.634 215.898 223.37 212.774 225.83 210.27C228.291 207.766 231.385 205.976 234.782 205.09C241.958 203.194 249.95 205.403 253.742 213.783C257.145 221.396 257.145 237.844 242.745 239.218Z" fill="#263238"/>
<path d="M273.688 136.73C245.494 126.965 206.456 137.811 191.269 146.485C191.269 146.485 148.978 168.175 144.636 210.475C140.295 252.775 171.749 292.932 229.226 303.739C286.704 314.546 325.742 258.235 325.742 218.068C325.742 177.901 301.891 146.485 273.688 136.73ZM241.617 235.815C227.217 237.189 216.969 228.278 219.68 215.907C221.282 208.693 227.15 203.497 233.644 201.734C240.83 199.791 248.812 202.057 252.604 210.427C256.007 218.04 256.007 234.45 241.617 235.815Z" fill="#D96220"/>
<path d="M243.579 305.588C238.734 305.575 233.901 305.112 229.141 304.204C201.507 298.99 178.774 286.893 163.397 269.213C148.827 252.462 141.992 231.587 144.163 210.437C148.476 168.374 190.615 146.295 191.051 146.077C205.65 137.735 244.954 126.283 273.849 136.294C304.687 146.94 326.216 180.584 326.216 218.04C326.216 242.47 312.309 270.417 291.605 287.576C281.13 296.288 264.928 305.588 243.579 305.588ZM248.139 133.317C225.236 133.317 201.981 140.901 191.506 146.902C191.07 147.13 149.367 168.981 145.111 210.522C140.56 254.917 175.181 293.055 229.312 303.275C257.534 308.593 278.437 297.293 290.998 286.874C311.503 269.886 325.268 242.233 325.268 218.068C325.268 180.983 303.995 147.717 273.536 137.176C265.341 134.496 256.76 133.193 248.139 133.317ZM238.707 236.431C231.995 236.431 226.221 234.165 222.591 230.023C220.922 228.101 219.746 225.803 219.163 223.326C218.58 220.848 218.608 218.267 219.244 215.803C220.097 212.316 221.876 209.124 224.395 206.566C226.913 204.007 230.076 202.177 233.549 201.27C241.892 199.014 249.542 202.531 253.04 210.219C255.344 215.291 255.979 223.813 252.614 229.625C250.339 233.549 246.67 235.777 241.683 236.261C240.659 236.384 239.674 236.431 238.707 236.431ZM238.489 201.592C236.887 201.593 235.293 201.807 233.749 202.227C230.444 203.09 227.435 204.828 225.037 207.259C222.639 209.69 220.942 212.724 220.126 216.04C219.527 218.353 219.499 220.777 220.044 223.104C220.589 225.431 221.69 227.59 223.254 229.397C227.236 233.909 233.91 236.033 241.551 235.35C246.205 234.905 249.637 232.829 251.742 229.188C254.955 223.652 254.339 215.509 252.13 210.655C249.106 203.953 243.636 201.592 238.489 201.592Z" fill="#263238"/>
<path d="M321.818 216.627C314.964 204.303 313.589 200.17 313.589 190.576C313.589 180.983 308.11 170.668 303.303 167.274C298.497 163.881 295.084 161.103 287.538 153.557C279.992 146.011 269.716 143.281 261.496 144.646C253.277 146.011 249.172 146.02 238.868 144.646C228.563 143.271 228.591 140.541 218.96 143.963C209.328 147.385 190.889 153.576 190.889 153.576C190.889 153.576 170.981 161.804 167.578 170.716C164.175 179.627 166.213 196.084 163.473 202.948C160.734 209.811 153.187 207.053 156.61 222.856C160.032 238.659 165.521 247.504 165.521 255.088C165.521 262.672 177.845 276.342 188.832 276.342C199.82 276.342 207.337 278.399 217.623 286.618C227.909 294.837 236.128 297.587 249.154 290.732C262.179 283.878 277.944 284.561 284.798 283.878C291.652 283.196 300.564 272.228 303.303 262.624C306.043 253.021 317.021 252.348 320.443 242.716C321.543 239.635 322.775 237.133 323.733 234.734C324.377 231.953 324.877 229.14 325.231 226.306C324.779 222.878 323.617 219.581 321.818 216.627ZM256.69 215.935C251.893 219.367 257.382 228.961 250.528 236.507C243.674 244.053 243.674 235.815 241.617 235.815C238.51 236.139 235.37 235.924 232.336 235.18C229.283 234.706 226.25 233.862 224.477 232.393C220.363 228.961 217.623 226.904 212.153 226.221C206.683 225.539 211.471 220.05 214.902 214.57C218.334 209.091 219.017 209.081 219.699 202.919C220.382 196.757 229.975 196.065 229.975 196.065C229.975 196.065 234.09 194.008 242.299 196.065C250.509 198.122 248.471 202.227 255.325 203.649C262.179 205.071 261.496 212.513 256.69 215.935Z" fill="#263238"/>
<path d="M235.682 295.018C229.122 295.018 223.529 291.87 217.329 286.912C206.626 278.38 199.061 276.74 188.832 276.74C177.276 276.74 165.047 262.596 165.047 255.012C165.047 251.106 163.53 246.755 161.596 241.247C159.386 235.254 157.568 229.123 156.155 222.894C153.794 212.049 156.543 209.698 159.454 207.214C161.016 206.061 162.248 204.518 163.028 202.739C164.298 199.573 164.516 194.207 164.753 188.519C165.028 182.007 165.303 175.247 167.142 170.507C170.602 161.511 189.894 153.443 190.709 153.102C190.927 153.026 209.347 146.883 218.836 143.499C225.472 141.11 227.71 141.669 231.672 142.693C234.059 143.339 236.484 143.83 238.934 144.162C249.21 145.528 253.154 145.528 261.411 144.162C270.626 142.627 280.769 146.058 287.879 153.206C295.188 160.515 298.63 163.331 303.588 166.867C308.546 170.403 314.063 180.86 314.063 190.567C314.063 199.924 315.362 204.019 322.235 216.391C324.052 219.392 325.233 222.735 325.704 226.212C325.709 226.246 325.709 226.282 325.704 226.316C325.354 229.166 324.851 231.995 324.197 234.791C323.808 235.739 323.41 236.687 322.984 237.692C322.292 239.294 321.571 240.944 320.898 242.821C319.163 247.675 315.57 250.31 312.091 252.851C308.612 255.391 305.123 257.951 303.777 262.672C301.094 272.057 292.25 283.528 284.817 284.267C283.5 284.4 281.859 284.476 279.973 284.571C271.934 284.969 259.79 285.576 249.343 291.065C244.195 293.804 239.749 295.008 235.682 295.018ZM226.458 142.778C223.946 142.897 221.474 143.449 219.149 144.409C209.669 147.803 191.221 153.946 191.041 154.012C190.861 154.079 171.342 162.25 168.024 170.868C166.241 175.494 165.966 182.149 165.701 188.595C165.464 194.34 165.236 199.772 163.909 203.09C163.079 205.015 161.754 206.686 160.07 207.934C157.226 210.333 154.837 212.399 157.074 222.695C158.482 228.885 160.29 234.978 162.487 240.934C164.45 246.527 165.995 250.945 165.995 255.012C165.995 262.236 178.091 275.792 188.832 275.792C199.26 275.792 207.005 277.442 217.917 286.173C227.653 293.965 235.853 297.122 248.935 290.24C259.563 284.647 271.83 284.04 279.954 283.604C281.85 283.509 283.452 283.433 284.751 283.3C291.055 282.675 300.014 272.313 302.848 262.397C304.289 257.354 307.967 254.671 311.522 252.073C314.888 249.608 318.367 247.068 319.998 242.489C320.68 240.593 321.401 238.906 322.102 237.303C322.519 236.355 322.927 235.407 323.287 234.459C323.92 231.735 324.411 228.978 324.756 226.202C324.283 222.873 323.142 219.675 321.401 216.798C314.433 204.256 313.115 200.075 313.115 190.52C313.115 181.258 307.806 171.01 303.028 167.597C298.032 164.033 294.563 161.198 287.206 153.842C280.305 146.94 270.483 143.575 261.61 145.063C253.382 146.428 249.125 146.428 238.858 145.063C236.37 144.727 233.906 144.23 231.483 143.575C229.851 143.087 228.161 142.82 226.458 142.778ZM245.826 240.157H245.532C244.11 240.005 243.333 238.697 242.688 237.635C242.309 236.981 241.911 236.299 241.569 236.299C238.424 236.63 235.245 236.412 232.175 235.654C228.44 235.066 225.719 234.099 224.126 232.81C220.145 229.492 217.424 227.425 212.03 226.752C210.598 226.572 209.717 226.07 209.328 225.226C208.484 223.33 210.437 220.42 212.712 217.007C213.291 216.144 213.878 215.262 214.428 214.371C214.978 213.48 215.528 212.655 215.964 211.982C218.097 208.702 218.609 207.925 219.159 202.919C219.851 196.691 228.734 195.743 229.795 195.648C230.459 195.354 234.621 193.752 242.366 195.648C245.241 196.207 247.843 197.72 249.751 199.943C251.151 201.691 253.158 202.848 255.372 203.185C258.216 203.763 260.112 205.432 260.672 207.925C261.307 210.892 259.724 214.371 256.927 216.4C254.927 217.832 254.879 220.457 254.822 223.785C254.756 227.748 254.671 232.668 250.831 236.896C248.812 239.095 247.201 240.157 245.826 240.157ZM241.569 235.351C242.517 235.351 243.01 236.223 243.56 237.152C244.11 238.081 244.698 239.105 245.655 239.209C246.613 239.313 248.253 238.261 250.177 236.185C253.78 232.222 253.856 227.653 253.969 223.7C254.036 220.239 254.083 217.253 256.463 215.556C259.013 213.736 260.397 210.655 259.837 208.048C259.392 205.982 257.771 204.569 255.278 204.067C252.872 203.691 250.69 202.439 249.153 200.549C247.375 198.454 244.933 197.032 242.233 196.52C234.308 194.539 230.26 196.464 230.222 196.52C230.166 196.549 230.105 196.566 230.042 196.568C229.947 196.568 220.827 197.307 220.202 203.005C219.614 208.238 219.036 209.129 216.855 212.485C216.419 213.158 215.907 213.935 215.329 214.864C214.751 215.793 214.182 216.656 213.594 217.528C211.698 220.439 209.66 223.444 210.285 224.828C210.522 225.34 211.186 225.671 212.248 225.776C217.936 226.477 220.713 228.62 224.828 232.042C226.288 233.265 228.857 234.166 232.412 234.734C235.405 235.471 238.503 235.686 241.569 235.37V235.351Z" fill="#263238"/>
<path d="M220.41 229.255C217.947 227.57 215.102 226.527 212.134 226.221C210.579 226.032 209.868 225.434 209.707 224.572C205.751 226.923 201.643 229.353 197.383 231.862C186.324 238.282 175.645 245.334 165.398 252.983C165.484 253.656 165.528 254.334 165.53 255.012C165.53 258.017 167.502 262.008 170.555 265.715C172.546 264.198 174.736 262.587 177.191 260.861C185.363 255.078 202.872 241.873 220.41 229.255Z" fill="white"/>
<path d="M170.545 266.189C170.476 266.189 170.408 266.174 170.346 266.144C170.284 266.115 170.229 266.072 170.185 266.018C166.924 262.065 165.047 258.045 165.047 255.012C165.043 254.352 164.999 253.694 164.914 253.04C164.906 252.957 164.918 252.873 164.952 252.797C164.985 252.721 165.037 252.654 165.104 252.604C175.365 244.947 186.057 237.886 197.127 231.454C201.412 228.942 205.508 226.515 209.451 224.164C209.518 224.127 209.593 224.107 209.669 224.107C209.746 224.107 209.821 224.127 209.887 224.164C209.957 224.195 210.019 224.241 210.067 224.301C210.114 224.36 210.147 224.43 210.162 224.505C210.248 224.96 210.551 225.576 212.191 225.785C215.227 226.097 218.137 227.163 220.657 228.885C220.721 228.927 220.774 228.985 220.811 229.053C220.848 229.121 220.867 229.197 220.867 229.274C220.867 229.351 220.848 229.427 220.811 229.495C220.774 229.562 220.721 229.62 220.657 229.662C211.243 236.422 202.028 243.219 193.904 249.22C187.097 254.244 181.22 258.586 177.409 261.278C175.219 262.823 173.067 264.407 170.773 266.122C170.704 266.163 170.625 266.185 170.545 266.189ZM165.9 253.201C165.968 253.802 166.003 254.407 166.004 255.012C166.004 257.704 167.73 261.439 170.64 265.061C172.773 263.44 174.821 261.942 176.897 260.472C180.689 257.79 186.576 253.448 193.383 248.433C201.346 242.546 210.352 235.9 219.576 229.274C217.313 227.846 214.749 226.963 212.087 226.695C211.566 226.691 211.055 226.559 210.597 226.311C210.139 226.063 209.749 225.707 209.461 225.273C205.669 227.539 201.725 229.861 197.62 232.269C186.659 238.64 176.068 245.628 165.9 253.201Z" fill="#263238"/>
<path d="M187.704 199.345C210.551 181.77 224.61 170.346 247.428 160.686C258.065 156.183 269.848 151.87 280.02 148.011C276.394 146.063 272.418 144.852 268.322 144.447C265.478 145.395 262.558 146.447 259.724 147.499C236.024 156.287 215.784 164.194 185.031 191.439C173.304 201.82 163.502 211.053 155.851 218.505C156.019 219.947 156.259 221.381 156.572 222.799C156.828 223.956 157.093 225.065 157.368 226.155C164.004 218.855 173.181 210.522 187.704 199.345Z" fill="white"/>
<path d="M157.368 226.629H157.254C157.17 226.609 157.093 226.567 157.031 226.507C156.97 226.447 156.925 226.371 156.903 226.287C156.629 225.197 156.363 224.079 156.117 222.913C155.792 221.483 155.548 220.037 155.387 218.58C155.378 218.507 155.386 218.433 155.411 218.364C155.436 218.295 155.476 218.233 155.529 218.182C164.715 209.233 174.536 200.17 184.718 191.107C216.362 163.075 237.341 155.301 259.562 147.073C262.321 146.049 265.25 145.025 268.161 144.02C268.226 144.002 268.295 144.002 268.36 144.02C272.522 144.435 276.561 145.666 280.248 147.641C280.328 147.684 280.395 147.749 280.439 147.829C280.484 147.909 280.504 148 280.498 148.091C280.492 148.182 280.46 148.27 280.406 148.343C280.351 148.416 280.276 148.472 280.191 148.504L274.171 150.779C265.336 154.097 256.159 157.529 247.627 161.207C226.392 170.185 212.921 180.575 192.529 196.283L187.979 199.791C174.337 210.276 164.734 218.751 157.738 226.534C157.686 226.574 157.626 226.604 157.563 226.62C157.499 226.636 157.433 226.639 157.368 226.629ZM156.42 218.684C156.562 219.917 156.79 221.235 157.103 222.695C157.292 223.548 157.482 224.372 157.681 225.178C164.658 217.594 174.148 209.204 187.448 198.976L191.998 195.458C212.447 179.693 225.956 169.275 247.305 160.25C255.913 156.609 265.061 153.168 273.906 149.822L278.93 147.926C275.642 146.305 272.092 145.284 268.445 144.911C265.535 145.907 262.681 146.921 259.961 147.926C237.825 156.126 216.921 163.862 185.41 191.771C175.276 200.748 165.521 209.792 156.42 218.684Z" fill="#263238"/>
<path d="M249.571 200.341C251.023 202.098 253.071 203.259 255.325 203.602C256.132 203.757 256.909 204.039 257.629 204.436L258.889 203.744C271.384 196.975 293.453 185.258 309.731 175.56C308.481 173.002 306.837 170.657 304.858 168.611C296.904 172.527 288.448 177.058 281.736 180.935C272.91 185.941 262.473 192.387 249.571 200.341Z" fill="white"/>
<path d="M257.629 204.91C257.549 204.911 257.471 204.891 257.401 204.854C256.724 204.477 255.991 204.212 255.23 204.067C252.881 203.698 250.745 202.489 249.22 200.663C249.173 200.613 249.138 200.553 249.116 200.487C249.095 200.422 249.088 200.353 249.097 200.284C249.103 200.214 249.127 200.147 249.165 200.087C249.203 200.028 249.254 199.979 249.315 199.943L251.125 198.824C263.392 191.24 273.081 185.296 281.461 180.48C288.685 176.357 297.122 171.873 304.612 168.156C304.699 168.112 304.799 168.096 304.896 168.111C304.993 168.126 305.082 168.172 305.152 168.242C307.169 170.325 308.842 172.715 310.11 175.323C310.165 175.43 310.177 175.553 310.143 175.668C310.11 175.782 310.033 175.88 309.93 175.94C296.307 184.064 278.731 193.534 265.895 200.455L259.07 204.133L258.122 204.664L257.847 204.825C257.782 204.87 257.707 204.899 257.629 204.91ZM250.272 200.436C251.615 201.896 253.419 202.85 255.382 203.138C256.15 203.287 256.893 203.542 257.591 203.896H257.638L258.586 203.356L265.402 199.668C278.115 192.823 295.473 183.467 309.01 175.418C307.859 173.156 306.398 171.066 304.668 169.209C297.274 172.859 288.989 177.267 281.916 181.334C273.508 186.14 263.829 192.103 251.58 199.659L250.272 200.436Z" fill="#263238"/>
<path d="M220.22 273.166C235.161 259.107 261.525 254.709 294.041 238.014C307 231.378 317.163 226.24 324.377 222.325C323.713 220.351 322.859 218.446 321.827 216.637C321.562 216.163 321.325 215.689 321.078 215.272C300.383 222.685 263.601 239.436 239.55 252.083C225.425 259.515 212.257 269.147 201.753 277.793C204.989 278.726 208.082 280.094 210.949 281.859C213.863 279.129 216.953 276.232 220.22 273.166Z" fill="white"/>
<path d="M210.949 282.324C210.863 282.321 210.778 282.298 210.703 282.257C207.871 280.513 204.816 279.161 201.621 278.238C201.538 278.214 201.463 278.167 201.405 278.104C201.346 278.04 201.306 277.962 201.289 277.878C201.272 277.793 201.278 277.705 201.306 277.623C201.334 277.542 201.384 277.469 201.45 277.413C213.19 267.572 225.895 258.942 239.37 251.656C264.369 238.498 300.99 221.974 320.898 214.817C321.005 214.78 321.121 214.781 321.227 214.821C321.332 214.861 321.421 214.936 321.476 215.035L322.225 216.4C323.27 218.237 324.136 220.171 324.813 222.173C324.845 222.28 324.84 222.394 324.799 222.497C324.757 222.6 324.682 222.687 324.586 222.742C319.211 225.662 312.319 229.179 303.597 233.644L294.24 238.384C280.788 245.295 268.379 250.111 257.42 254.348C241.674 260.453 229.236 265.279 220.533 273.46C217.266 276.544 214.175 279.439 211.262 282.144C211.224 282.193 211.177 282.234 211.124 282.265C211.07 282.296 211.011 282.316 210.949 282.324ZM202.739 277.584C205.592 278.486 208.328 279.72 210.892 281.262C213.717 278.626 216.719 275.814 219.898 272.825C228.733 264.501 241.247 259.657 257.088 253.514C268.019 249.276 280.409 244.479 293.823 237.588L303.18 232.8C311.712 228.439 318.481 224.97 323.799 222.097C323.151 220.284 322.348 218.53 321.4 216.855L320.851 215.85C300.819 223.064 264.577 239.436 239.778 252.49C226.632 259.609 214.225 268.015 202.739 277.584Z" fill="#263238"/>
<path d="M234.09 279.821C233.813 279.82 233.539 279.759 233.289 279.641C233.038 279.523 232.817 279.352 232.639 279.139C232.319 278.754 232.164 278.257 232.208 277.758C232.253 277.259 232.493 276.797 232.876 276.475C235.589 274.281 238.657 272.569 241.949 271.413C242.421 271.293 242.92 271.36 243.344 271.598C243.768 271.837 244.084 272.23 244.227 272.695C244.37 273.161 244.328 273.663 244.11 274.098C243.892 274.534 243.516 274.869 243.058 275.034C240.249 276.043 237.628 277.514 235.303 279.385C234.962 279.668 234.533 279.822 234.09 279.821Z" fill="#D96220"/>
<path d="M266.691 262.103C266.526 261.75 266.473 261.355 266.54 260.971C266.608 260.587 266.792 260.233 267.067 259.957C267.343 259.682 267.697 259.498 268.081 259.43C268.465 259.363 268.86 259.416 269.213 259.581C272.348 261.104 275.198 263.153 277.641 265.639C277.979 266.016 278.153 266.512 278.126 267.018C278.098 267.524 277.871 267.998 277.494 268.336C277.117 268.674 276.621 268.849 276.115 268.821C275.609 268.794 275.135 268.566 274.797 268.189C272.695 266.068 270.249 264.318 267.564 263.013C267.178 262.818 266.87 262.497 266.691 262.103Z" fill="#D96220"/>
<path d="M285.102 255.609C284.824 255.6 284.552 255.53 284.305 255.403C284.057 255.277 283.841 255.098 283.67 254.879C283.363 254.483 283.226 253.981 283.288 253.484C283.35 252.986 283.607 252.534 284.002 252.225C286.782 250.122 289.906 248.519 293.235 247.485C293.483 247.399 293.745 247.366 294.006 247.387C294.267 247.408 294.52 247.482 294.751 247.606C294.981 247.73 295.184 247.9 295.346 248.105C295.507 248.311 295.625 248.548 295.69 248.801C295.756 249.055 295.768 249.319 295.727 249.577C295.685 249.835 295.591 250.082 295.449 250.302C295.308 250.523 295.122 250.711 294.904 250.856C294.687 251.001 294.441 251.099 294.183 251.144C291.34 252.053 288.671 253.435 286.287 255.23C285.945 255.486 285.528 255.62 285.102 255.609Z" fill="white"/>
<path d="M181.305 269.981C181.274 269.594 181.363 269.208 181.559 268.873C181.756 268.538 182.05 268.272 182.402 268.109C182.755 267.947 183.148 267.897 183.53 267.965C183.912 268.034 184.264 268.218 184.538 268.493C186.955 271.005 188.918 273.917 190.339 277.101C190.509 277.563 190.491 278.073 190.291 278.523C190.09 278.973 189.722 279.327 189.265 279.511C188.808 279.695 188.298 279.693 187.842 279.507C187.386 279.321 187.02 278.964 186.822 278.513C185.583 275.799 183.901 273.31 181.845 271.147C181.535 270.833 181.344 270.421 181.305 269.981Z" fill="white"/>
<path d="M308.015 192.093C307.992 191.816 308.03 191.538 308.127 191.277C308.223 191.017 308.376 190.781 308.574 190.586C308.75 190.41 308.959 190.27 309.189 190.174C309.42 190.079 309.666 190.03 309.915 190.03C310.165 190.03 310.411 190.079 310.642 190.174C310.872 190.27 311.081 190.41 311.257 190.586C313.671 193.1 315.634 196.012 317.059 199.194C317.161 199.426 317.215 199.677 317.218 199.931C317.221 200.185 317.174 200.437 317.078 200.672C316.981 200.907 316.839 201.121 316.659 201.3C316.479 201.479 316.265 201.62 316.029 201.715C315.793 201.809 315.541 201.856 315.287 201.851C315.033 201.846 314.783 201.79 314.551 201.687C314.319 201.584 314.11 201.435 313.936 201.249C313.763 201.063 313.629 200.845 313.542 200.606C312.307 197.887 310.621 195.397 308.555 193.24C308.249 192.931 308.058 192.526 308.015 192.093Z" fill="white"/>
<path d="M190.548 213.689C190.518 213.302 190.606 212.915 190.803 212.58C190.999 212.246 191.293 211.979 191.645 211.817C191.998 211.655 192.391 211.604 192.773 211.673C193.155 211.741 193.507 211.926 193.781 212.2C196.194 214.719 198.157 217.634 199.583 220.818C199.752 221.28 199.734 221.79 199.534 222.24C199.333 222.69 198.966 223.044 198.508 223.228C198.051 223.412 197.541 223.41 197.085 223.224C196.629 223.038 196.263 222.681 196.066 222.23C194.831 219.511 193.145 217.021 191.079 214.864C190.77 214.546 190.582 214.131 190.548 213.689Z" fill="white"/>
<path d="M169.029 183.798C168.998 183.411 169.087 183.024 169.283 182.69C169.479 182.355 169.773 182.088 170.126 181.926C170.478 181.764 170.872 181.714 171.254 181.782C171.636 181.851 171.987 182.035 172.261 182.31C174.672 184.83 176.634 187.745 178.063 190.927C178.232 191.39 178.215 191.9 178.014 192.35C177.814 192.8 177.446 193.154 176.989 193.337C176.532 193.521 176.021 193.519 175.565 193.333C175.109 193.147 174.744 192.791 174.546 192.34C173.311 189.62 171.625 187.13 169.559 184.974C169.251 184.656 169.063 184.24 169.029 183.798Z" fill="white"/>
<path d="M207.224 259.818C206.836 259.803 206.462 259.67 206.153 259.436C205.843 259.202 205.613 258.878 205.493 258.51C205.374 258.141 205.37 257.744 205.482 257.373C205.595 257.001 205.819 256.674 206.124 256.434C208.904 254.331 212.028 252.728 215.357 251.694C215.605 251.608 215.867 251.575 216.128 251.596C216.389 251.617 216.642 251.691 216.873 251.815C217.103 251.939 217.306 252.109 217.468 252.314C217.629 252.52 217.747 252.757 217.812 253.01C217.878 253.264 217.89 253.528 217.849 253.786C217.807 254.044 217.713 254.291 217.571 254.511C217.43 254.732 217.244 254.92 217.026 255.065C216.809 255.21 216.563 255.308 216.305 255.353C213.462 256.262 210.793 257.644 208.409 259.439C208.067 259.695 207.65 259.829 207.224 259.818Z" fill="white"/>
<path d="M253.201 177.219C253.098 176.962 253.051 176.685 253.066 176.409C253.081 176.132 253.156 175.862 253.287 175.617C253.522 175.174 253.924 174.842 254.404 174.695C254.884 174.547 255.402 174.596 255.846 174.83C258.9 176.518 261.642 178.718 263.952 181.334C264.123 181.525 264.255 181.749 264.337 181.992C264.42 182.235 264.452 182.493 264.432 182.749C264.412 183.005 264.34 183.254 264.221 183.482C264.101 183.709 263.937 183.91 263.738 184.072C263.538 184.234 263.308 184.354 263.061 184.425C262.814 184.495 262.555 184.514 262.3 184.482C262.045 184.449 261.8 184.365 261.579 184.234C261.357 184.104 261.165 183.93 261.013 183.722C259.021 181.513 256.672 179.655 254.064 178.224C253.665 178.004 253.359 177.647 253.201 177.219Z" fill="white"/>
<path d="M282.087 158.231C281.699 158.216 281.326 158.082 281.016 157.848C280.707 157.614 280.477 157.291 280.357 156.922C280.237 156.553 280.233 156.156 280.346 155.785C280.459 155.414 280.683 155.086 280.987 154.847C283.77 152.748 286.894 151.144 290.221 150.107C290.706 149.976 291.223 150.044 291.659 150.294C292.094 150.545 292.413 150.958 292.544 151.443C292.674 151.928 292.606 152.446 292.356 152.881C292.105 153.317 291.692 153.635 291.207 153.766C288.363 154.677 285.693 156.062 283.31 157.861C282.957 158.122 282.525 158.253 282.087 158.231Z" fill="white"/>
<path d="M194.103 194.017C193.716 194.003 193.342 193.869 193.032 193.635C192.723 193.401 192.493 193.078 192.373 192.709C192.253 192.34 192.249 191.943 192.362 191.572C192.475 191.201 192.699 190.873 193.003 190.633C195.784 188.531 198.908 186.927 202.237 185.893C202.484 185.808 202.747 185.774 203.007 185.795C203.268 185.816 203.522 185.891 203.752 186.014C203.983 186.138 204.186 186.308 204.347 186.514C204.509 186.719 204.626 186.956 204.692 187.21C204.757 187.463 204.77 187.727 204.728 187.985C204.687 188.244 204.593 188.491 204.451 188.711C204.31 188.931 204.124 189.119 203.906 189.264C203.688 189.409 203.443 189.507 203.185 189.552C200.342 190.461 197.672 191.843 195.288 193.638C194.949 193.898 194.53 194.033 194.103 194.017Z" fill="white"/>
<path d="M224.742 247.428C224.579 247.076 224.527 246.682 224.594 246.3C224.662 245.918 224.845 245.565 225.118 245.29C225.392 245.015 225.744 244.831 226.126 244.762C226.508 244.694 226.902 244.744 227.255 244.906C230.396 246.423 233.25 248.473 235.692 250.964C236.029 251.341 236.202 251.837 236.174 252.342C236.145 252.846 235.917 253.319 235.54 253.656C235.163 253.993 234.668 254.166 234.163 254.138C233.658 254.11 233.185 253.882 232.848 253.505C230.74 251.389 228.291 249.643 225.605 248.338C225.225 248.138 224.922 247.818 224.742 247.428Z" fill="#D96220"/>
<path d="M291.671 211.176C291.553 210.924 291.491 210.649 291.491 210.371C291.491 210.092 291.553 209.817 291.671 209.565C291.774 209.336 291.92 209.13 292.103 208.959C292.285 208.787 292.5 208.653 292.734 208.565C292.969 208.477 293.219 208.436 293.469 208.445C293.719 208.454 293.965 208.512 294.193 208.617C297.332 210.132 300.184 212.182 302.621 214.675C302.787 214.861 302.916 215.079 302.999 215.315C303.081 215.552 303.116 215.802 303.102 216.052C303.088 216.302 303.025 216.547 302.916 216.773C302.808 216.998 302.656 217.2 302.469 217.367C302.282 217.534 302.064 217.662 301.828 217.745C301.592 217.827 301.341 217.863 301.091 217.849C300.841 217.835 300.597 217.771 300.371 217.663C300.145 217.554 299.943 217.402 299.777 217.215C297.673 215.099 295.228 213.352 292.543 212.049C292.164 211.863 291.857 211.556 291.671 211.176Z" fill="#D96220"/>
<path d="M291.709 181.248C291.402 181.489 291.028 181.63 290.638 181.651C290.248 181.672 289.861 181.572 289.53 181.364C289.199 181.157 288.94 180.852 288.789 180.492C288.638 180.132 288.601 179.734 288.685 179.352C289.459 175.95 290.816 172.707 292.695 169.768C292.831 169.549 293.009 169.36 293.22 169.213C293.431 169.066 293.67 168.963 293.922 168.911C294.174 168.859 294.434 168.858 294.686 168.91C294.938 168.962 295.177 169.064 295.388 169.211C295.599 169.358 295.779 169.546 295.915 169.764C296.051 169.983 296.141 170.226 296.18 170.481C296.219 170.735 296.206 170.994 296.141 171.244C296.077 171.493 295.962 171.726 295.805 171.929C294.217 174.456 293.063 177.231 292.392 180.139C292.302 180.578 292.06 180.971 291.709 181.248Z" fill="#D96220"/>
<path d="M223.937 190.084C223.717 190.256 223.462 190.377 223.19 190.44C222.918 190.502 222.636 190.503 222.363 190.444C221.873 190.337 221.446 190.041 221.174 189.62C220.902 189.199 220.808 188.687 220.913 188.197C221.686 184.799 223.04 181.56 224.913 178.622C225.049 178.404 225.228 178.215 225.438 178.068C225.649 177.92 225.888 177.817 226.14 177.765C226.392 177.713 226.652 177.713 226.904 177.765C227.156 177.816 227.395 177.918 227.606 178.065C227.818 178.212 227.997 178.4 228.133 178.619C228.269 178.837 228.359 179.081 228.398 179.335C228.437 179.589 228.424 179.849 228.359 180.098C228.295 180.347 228.18 180.58 228.023 180.784C226.436 183.31 225.285 186.085 224.619 188.993C224.521 189.423 224.28 189.807 223.937 190.084Z" fill="#D96220"/>
<path d="M170.469 230.497C170.162 230.738 169.788 230.879 169.398 230.9C169.008 230.92 168.621 230.82 168.29 230.613C167.959 230.405 167.701 230.101 167.549 229.74C167.398 229.38 167.362 228.982 167.445 228.601C168.22 225.202 169.577 221.963 171.455 219.026C171.753 218.642 172.187 218.387 172.667 218.313C173.147 218.24 173.637 218.353 174.036 218.631C174.435 218.908 174.712 219.328 174.81 219.804C174.909 220.279 174.821 220.775 174.565 221.187C172.977 223.714 171.823 226.489 171.152 229.397C171.06 229.832 170.819 230.222 170.469 230.497Z" fill="#D96220"/>
<path d="M258.994 155.785C258.83 155.433 258.778 155.039 258.846 154.657C258.913 154.275 259.096 153.922 259.37 153.647C259.644 153.372 259.995 153.188 260.377 153.119C260.759 153.051 261.153 153.101 261.506 153.263C264.644 154.785 267.498 156.834 269.943 159.321C270.111 159.508 270.24 159.726 270.323 159.962C270.406 160.199 270.442 160.449 270.428 160.7C270.415 160.95 270.352 161.196 270.243 161.422C270.135 161.648 269.983 161.85 269.796 162.018C269.609 162.185 269.392 162.314 269.155 162.398C268.918 162.481 268.668 162.517 268.417 162.503C268.167 162.489 267.921 162.427 267.695 162.318C267.469 162.21 267.267 162.058 267.099 161.871C264.994 159.753 262.549 158.004 259.866 156.695C259.48 156.5 259.172 156.179 258.994 155.785Z" fill="#D96220"/>
<path d="M216.04 151.832C215.876 151.48 215.824 151.086 215.892 150.704C215.959 150.321 216.142 149.969 216.416 149.694C216.69 149.419 217.042 149.235 217.424 149.166C217.806 149.097 218.199 149.148 218.552 149.31C221.69 150.832 224.544 152.881 226.989 155.368C227.327 155.745 227.502 156.241 227.474 156.747C227.447 157.253 227.219 157.727 226.842 158.065C226.465 158.403 225.969 158.577 225.463 158.55C224.958 158.522 224.483 158.295 224.145 157.918C222.038 155.804 219.593 154.054 216.912 152.742C216.526 152.547 216.218 152.226 216.04 151.832Z" fill="#D96220"/>
<path d="M300.933 243.636C300.815 243.384 300.753 243.109 300.753 242.83C300.753 242.552 300.815 242.276 300.933 242.024C301.036 241.796 301.182 241.59 301.365 241.418C301.547 241.246 301.762 241.113 301.996 241.025C302.231 240.936 302.48 240.896 302.731 240.905C302.981 240.913 303.227 240.972 303.455 241.076C306.594 242.592 309.446 244.642 311.883 247.134C312.05 247.321 312.179 247.539 312.262 247.775C312.346 248.012 312.381 248.263 312.368 248.513C312.354 248.763 312.291 249.009 312.183 249.235C312.074 249.461 311.922 249.664 311.736 249.831C311.549 249.999 311.331 250.128 311.094 250.211C310.858 250.294 310.607 250.33 310.357 250.316C310.106 250.303 309.861 250.24 309.635 250.131C309.409 250.023 309.206 249.871 309.039 249.684C306.937 247.563 304.491 245.813 301.805 244.508C301.426 244.323 301.119 244.016 300.933 243.636Z" fill="#D96220"/>
<path d="M272.664 222.24C272.915 222.123 273.188 222.062 273.465 222.062C273.742 222.062 274.015 222.123 274.266 222.24C274.72 222.446 275.075 222.824 275.252 223.291C275.43 223.758 275.416 224.276 275.214 224.733C273.768 227.896 271.782 230.783 269.346 233.265C269.165 233.436 268.952 233.57 268.719 233.659C268.486 233.748 268.238 233.79 267.989 233.783C267.739 233.776 267.494 233.72 267.267 233.618C267.039 233.516 266.834 233.37 266.663 233.189C266.32 232.824 266.135 232.338 266.149 231.837C266.163 231.336 266.375 230.861 266.739 230.516C268.807 228.362 270.502 225.879 271.754 223.169C271.938 222.761 272.26 222.432 272.664 222.24Z" fill="#D96220"/>
<path d="M194.084 164.137C194.432 163.965 194.825 163.904 195.209 163.963C195.593 164.021 195.95 164.196 196.231 164.464C196.512 164.732 196.705 165.079 196.782 165.46C196.859 165.841 196.817 166.236 196.663 166.592C195.205 169.751 193.217 172.637 190.785 175.124C190.416 175.446 189.938 175.613 189.449 175.589C188.96 175.566 188.499 175.355 188.163 175C187.826 174.645 187.64 174.174 187.643 173.685C187.645 173.195 187.837 172.726 188.178 172.375C190.246 170.222 191.941 167.739 193.193 165.028C193.38 164.638 193.694 164.324 194.084 164.137Z" fill="#D96220"/>
<path d="M264.663 279.072C265.014 278.895 265.411 278.831 265.8 278.889C266.189 278.948 266.551 279.126 266.834 279.399C267.117 279.672 267.309 280.026 267.382 280.412C267.455 280.799 267.406 281.199 267.241 281.556C265.784 284.715 263.796 287.601 261.364 290.088C260.995 290.41 260.516 290.576 260.028 290.553C259.539 290.53 259.078 290.319 258.741 289.964C258.405 289.609 258.218 289.138 258.221 288.648C258.224 288.159 258.416 287.69 258.757 287.339C260.825 285.185 262.52 282.702 263.772 279.992C263.953 279.591 264.268 279.266 264.663 279.072Z" fill="#D96220"/>
<path d="M236.801 125.307H235.569C220.158 125.316 204.996 129.183 191.463 136.555C177.931 143.927 166.459 154.57 158.095 167.513C149.731 180.456 144.741 195.287 143.579 210.653C142.417 226.02 145.12 241.433 151.443 255.486L236.763 214.864L236.801 125.307Z" fill="white"/>
<path opacity="0.3" d="M248.243 117.467C253.078 110.3 255.382 105.143 256.481 100.061V99.8906C256.548 99.5683 256.614 99.2459 256.671 98.9426C256.728 98.6392 256.756 98.4686 256.794 98.2316L256.936 97.2836C256.936 97.0371 257.003 96.8001 257.031 96.5536C257.06 96.3071 257.098 95.909 257.136 95.6056C257.173 95.3023 257.183 95.0937 257.202 94.8377C257.221 94.5818 257.202 94.1931 257.268 93.8897C257.335 93.5864 257.268 93.3399 257.316 93.065C257.363 92.7901 257.316 92.4298 257.316 92.117V91.169V90.221C257.316 89.8418 257.316 89.4436 257.316 89.0549C257.316 88.6663 257.316 88.543 257.316 88.2871C257.316 87.6235 257.316 86.9504 257.316 86.2583C257.316 86.1351 257.316 85.9834 257.316 85.8128C257.316 85.7369 257.316 85.6421 257.316 85.5568C257.316 85.4715 257.316 85.3672 257.316 85.2629V85.1681C257.316 85.0544 257.316 84.9311 257.316 84.8174C257.316 84.7036 257.316 84.6278 257.316 84.533V84.4003C257.316 84.2486 257.316 84.0874 257.316 83.9263C257.316 83.7651 257.316 83.7556 257.316 83.6703C257.079 79.6697 256.529 72.8347 256.188 69.6683C255.543 63.6675 254.434 46.8595 251.144 42.1763H251.068V92.572C251.005 93.012 250.785 93.4143 250.449 93.7053C250.113 93.9964 249.683 94.1565 249.239 94.1565C248.794 94.1565 248.365 93.9964 248.029 93.7053C247.693 93.4143 247.473 93.012 247.409 92.572V58.9749C247.41 53.2442 246.534 47.5472 244.812 42.0815L244.328 44.224C243.419 48.2692 242.958 52.402 242.953 56.548V92.572C242.898 93.0168 242.682 93.4259 242.346 93.7226C242.01 94.0192 241.577 94.1829 241.129 94.1829C240.68 94.1829 240.248 94.0192 239.912 93.7226C239.575 93.4259 239.359 93.0168 239.304 92.572V58.1786C239.301 52.972 238.577 47.7909 237.152 42.7831L236.953 42.0815L236.592 43.4846C235.427 48.0316 234.838 52.7072 234.839 57.4012V92.572C234.783 93.0168 234.567 93.4259 234.231 93.7226C233.895 94.0192 233.462 94.1829 233.014 94.1829C232.565 94.1829 232.133 94.0192 231.797 93.7226C231.461 93.4259 231.244 93.0168 231.189 92.572V42.0815C227.985 46.6604 226.819 63.5822 226.174 69.1564C225.785 72.5313 225.226 79.5086 225.008 83.585C225.008 83.6798 225.008 83.7651 225.008 83.8599C225.008 83.9547 225.008 84.1253 225.008 84.2581V84.4382C225.008 84.533 225.008 84.6183 225.008 84.7131C225.008 84.8079 225.008 84.9406 225.008 85.0544V85.1776C225.008 85.2819 225.008 85.3672 225.008 85.4715C225.013 85.5504 225.013 85.6296 225.008 85.7085V86.2678C225.008 97.1698 223.918 106.555 232.715 117.296C235.693 121.308 237.308 126.169 237.322 131.165C237.322 144.74 236.839 172.555 235.426 190.216C234.753 198.34 233.578 206.56 232.497 213.082C232.279 214.4 232.061 215.651 231.852 216.826V216.997C231.672 218.002 231.511 218.94 231.35 219.841C231.303 220.059 231.265 220.277 231.227 220.486L231.141 220.96C231.066 221.32 230.999 221.68 230.933 222.012C230.809 222.652 230.755 223.304 230.772 223.955C230.772 224.287 230.772 224.609 230.848 224.903C230.93 225.55 231.083 226.186 231.303 226.799C231.637 227.718 232.114 228.579 232.715 229.349C234 230.98 235.802 232.123 237.825 232.592C238.496 232.747 239.183 232.826 239.872 232.829H241.674C243.052 232.829 244.413 232.517 245.653 231.914C246.893 231.311 247.98 230.434 248.831 229.349C249.235 228.834 249.584 228.278 249.874 227.69C250.015 227.401 250.138 227.104 250.244 226.799C250.791 225.265 250.922 223.613 250.623 222.012C250.556 221.68 250.481 221.31 250.414 220.941L250.338 220.552L250.196 219.756C250.13 219.405 250.063 219.035 249.997 218.666C249.997 218.533 249.95 218.41 249.921 218.286C249.864 217.977 249.808 217.661 249.751 217.338V217.272C249.627 216.57 249.495 215.822 249.362 215.054C249.296 214.665 249.229 214.257 249.163 213.85C248.044 207.214 246.802 198.682 246.11 190.254C244.66 172.593 243.446 144.75 244.214 131.203C244.584 121.135 247.096 119.344 248.243 117.467Z" fill="black"/>
<path d="M241.531 129.307C242.062 119.334 244.565 117.533 245.712 115.665C254.576 102.535 254.955 96.2406 254.955 84.3812C254.955 82.106 254.149 71.8391 253.713 67.7532C253.068 61.7524 251.959 44.9444 248.67 40.2612H248.594V90.7612C248.53 91.2012 248.311 91.6035 247.974 91.8945C247.638 92.1855 247.209 92.3457 246.764 92.3457C246.32 92.3457 245.89 92.1855 245.554 91.8945C245.218 91.6035 244.998 91.2012 244.935 90.7612V57.1641C244.937 51.4364 244.061 45.7424 242.337 40.2802L241.854 42.4227C240.944 46.4677 240.483 50.6006 240.479 54.7467V90.7612C240.416 91.2012 240.196 91.6035 239.86 91.8945C239.524 92.1855 239.094 92.3457 238.649 92.3457C238.205 92.3457 237.775 92.1855 237.439 91.8945C237.103 91.6035 236.883 91.2012 236.82 90.7612V56.3772C236.822 51.1672 236.098 45.9822 234.668 40.9722L234.478 40.2802L234.156 41.7117C232.991 46.2588 232.402 50.9343 232.402 55.6283V90.7991C232.346 91.2439 232.13 91.653 231.794 91.9496C231.458 92.2463 231.025 92.41 230.577 92.41C230.129 92.41 229.696 92.2463 229.36 91.9496C229.024 91.653 228.808 91.2439 228.752 90.7991V40.2802C225.51 44.8496 224.344 61.7808 223.728 67.3077C223.225 71.659 222.458 81.9732 222.458 84.3717C222.458 95.2737 221.377 104.668 230.174 115.4C233.152 119.412 234.767 124.272 234.782 129.269C234.782 142.844 234.298 170.659 232.886 188.329C231.911 198.991 230.402 209.596 228.364 220.106C228.098 221.393 228.114 222.721 228.41 224.001C228.707 225.28 229.276 226.481 230.079 227.52C230.931 228.604 232.018 229.48 233.258 230.083C234.498 230.686 235.858 230.999 237.237 230.999H239.038C240.417 231 241.778 230.687 243.018 230.084C244.258 229.481 245.344 228.604 246.195 227.52C247.001 226.496 247.578 225.311 247.887 224.045C248.196 222.779 248.23 221.462 247.987 220.182C245.94 209.674 244.43 199.068 243.465 188.405C242.015 170.697 240.792 142.863 241.531 129.307Z" fill="#D9D9D9"/>
<path d="M239.038 231.435H237.237C235.827 231.435 234.434 231.124 233.159 230.523C231.883 229.923 230.755 229.048 229.857 227.961C228.959 226.874 228.311 225.602 227.961 224.236C227.611 222.87 227.568 221.444 227.833 220.059C229.868 209.565 231.374 198.975 232.345 188.33C233.767 171.057 234.241 143.574 234.241 129.307C234.211 124.423 232.635 119.674 229.738 115.741C221.718 105.939 221.804 97.0466 221.898 87.633C221.898 86.5712 221.898 85.5 221.898 84.4098C221.898 82.0208 222.676 71.6213 223.178 67.2984C223.273 66.4262 223.387 65.2886 223.519 63.9709C224.259 56.4912 225.491 43.9681 228.259 40.0055C228.317 39.9225 228.4 39.8602 228.496 39.8278C228.592 39.7953 228.696 39.7944 228.792 39.8251C228.888 39.8558 228.972 39.9166 229.032 39.9985C229.091 40.0804 229.123 40.1792 229.122 40.2804V90.7614C229.181 91.0763 229.349 91.3607 229.595 91.5653C229.842 91.7698 230.153 91.8818 230.473 91.8818C230.793 91.8818 231.104 91.7698 231.351 91.5653C231.597 91.3607 231.765 91.0763 231.824 90.7614V55.5906C231.824 50.858 232.42 46.1442 233.597 41.5602L233.947 40.1571C233.973 40.0561 234.032 39.9666 234.114 39.903C234.197 39.8394 234.298 39.8053 234.402 39.8064C234.506 39.8073 234.606 39.8408 234.69 39.902C234.773 39.9633 234.835 40.0492 234.867 40.1477L235.066 40.8397C236.507 45.8932 237.237 51.1226 237.237 56.3774V90.7614C237.296 91.0763 237.464 91.3607 237.71 91.5653C237.957 91.7698 238.267 91.8818 238.588 91.8818C238.908 91.8818 239.219 91.7698 239.465 91.5653C239.712 91.3607 239.88 91.0763 239.939 90.7614V54.7848C239.938 50.591 240.403 46.4101 241.323 42.3186L241.806 40.1761C241.829 40.0739 241.886 39.9822 241.966 39.9153C242.047 39.8484 242.147 39.8101 242.252 39.8064C242.357 39.7981 242.462 39.8267 242.548 39.8872C242.635 39.9478 242.698 40.0365 242.726 40.1382C244.464 45.6592 245.346 51.414 245.342 57.2022V90.7614C245.396 91.082 245.562 91.3732 245.81 91.5832C246.058 91.7932 246.373 91.9085 246.698 91.9085C247.023 91.9085 247.338 91.7932 247.586 91.5832C247.834 91.3732 248 91.082 248.054 90.7614V40.2804C248.054 40.1547 248.104 40.0341 248.193 39.9452C248.281 39.8563 248.402 39.8064 248.528 39.8064C248.615 39.806 248.701 39.8235 248.781 39.8577C248.86 39.892 248.933 39.9422 248.992 40.0055C251.836 44.1387 253.088 56.9367 253.808 64.5871C253.922 65.81 254.026 66.8718 254.121 67.725C254.538 71.6592 255.363 82.0682 255.363 84.4098C255.363 96.3641 254.965 102.697 246.034 115.931C245.864 116.206 245.655 116.49 245.428 116.812C244.214 118.481 242.385 121.003 241.939 129.335C241.228 142.607 242.385 170.28 243.835 188.33C244.797 198.976 246.303 209.567 248.348 220.059C248.613 221.445 248.569 222.872 248.218 224.239C247.868 225.605 247.22 226.878 246.32 227.965C245.421 229.051 244.292 229.926 243.015 230.526C241.739 231.126 240.345 231.437 238.934 231.435H239.038ZM228.24 42.2048C226.183 47.2103 225.122 57.9606 224.515 64.0657C224.382 65.3929 224.278 66.54 224.174 67.4027C223.681 71.7161 222.903 82.0398 222.903 84.4098C222.903 85.5 222.903 86.5807 222.903 87.6425C222.808 97.2836 222.723 105.654 230.487 115.134C233.564 119.237 235.227 124.226 235.227 129.354C235.227 143.641 234.706 171.152 233.331 188.453C232.361 199.134 230.848 209.759 228.8 220.287C228.563 221.534 228.604 222.819 228.92 224.049C229.236 225.279 229.82 226.424 230.629 227.402C231.438 228.381 232.454 229.169 233.602 229.71C234.751 230.252 236.005 230.533 237.275 230.534H239.076C240.347 230.535 241.601 230.254 242.751 229.714C243.9 229.173 244.916 228.385 245.726 227.406C246.536 226.427 247.119 225.281 247.435 224.05C247.75 222.82 247.79 221.534 247.551 220.287C245.511 209.758 244.002 199.133 243.029 188.453C241.541 170.374 240.384 142.626 241.133 129.335C241.588 120.718 243.522 118.064 244.802 116.3C245.01 116.03 245.203 115.748 245.38 115.457C254.168 102.45 254.557 96.2124 254.557 84.4572C254.557 82.1441 253.732 71.7919 253.315 67.8767C253.23 67.0235 253.125 65.9807 253.012 64.7198C252.414 58.3682 251.353 47.087 249.144 42.0342V90.7614C249.092 91.3363 248.826 91.8709 248.4 92.2602C247.974 92.6494 247.418 92.8653 246.84 92.8653C246.263 92.8653 245.707 92.6494 245.28 92.2602C244.854 91.8709 244.589 91.3363 244.537 90.7614V57.1643C244.537 52.0916 243.845 47.0427 242.479 42.1574L242.394 42.5177C241.485 46.5434 241.027 50.6577 241.029 54.7848V90.7614C240.966 91.327 240.697 91.8496 240.273 92.2291C239.848 92.6086 239.299 92.8184 238.73 92.8184C238.161 92.8184 237.612 92.6086 237.188 92.2291C236.764 91.8496 236.494 91.327 236.431 90.7614V56.3774C236.414 51.5755 235.777 46.796 234.535 42.1574C233.435 46.5665 232.877 51.0936 232.876 55.638V90.8088C232.813 91.3744 232.544 91.897 232.12 92.2765C231.696 92.656 231.146 92.8658 230.577 92.8658C230.008 92.8658 229.459 92.656 229.035 92.2765C228.611 91.897 228.341 91.3744 228.278 90.8088L228.24 42.2048Z" fill="#263238"/>
<path d="M253.96 98.2507C254.908 94.0036 254.955 89.7755 254.955 84.4099C254.955 84.2866 254.955 84.1349 254.955 83.9738C254.955 83.8126 254.955 83.623 254.955 83.4145V83.3576C254.955 83.149 254.955 82.9215 254.955 82.6845V82.6276C254.955 82.3717 254.955 82.1062 254.908 81.8218H248.66V90.8089C248.597 91.2488 248.377 91.6512 248.041 91.9422C247.705 92.2332 247.275 92.3934 246.831 92.3934C246.386 92.3934 245.956 92.2332 245.62 91.9422C245.284 91.6512 245.065 91.2488 245.001 90.8089V81.7744H240.545V90.7615C240.482 91.2014 240.262 91.6038 239.926 91.8948C239.59 92.1858 239.16 92.346 238.716 92.346C238.271 92.346 237.842 92.1858 237.506 91.8948C237.17 91.6038 236.95 91.2014 236.886 90.7615V81.7744H232.431V90.7615C232.375 91.2062 232.159 91.6154 231.823 91.912C231.487 92.2086 231.054 92.3723 230.606 92.3723C230.157 92.3723 229.725 92.2086 229.389 91.912C229.053 91.6154 228.836 91.2062 228.781 90.7615V81.7744H222.6C222.6 82.0493 222.6 82.3053 222.6 82.5518V82.6371C222.6 82.8646 222.6 83.0827 222.6 83.2912V83.3671C222.6 83.5661 222.6 83.7462 222.6 83.9169C222.6 84.0875 222.6 84.2392 222.6 84.3625C222.534 89.0765 222.883 93.7872 223.643 98.4402C228.401 100.633 233.583 101.752 238.822 101.719C244.061 101.687 249.229 100.502 253.96 98.2507Z" fill="#263238"/>
<path d="M238.469 102.241C233.232 102.248 228.055 101.113 223.301 98.914C223.234 98.8816 223.174 98.8339 223.128 98.7747C223.082 98.7154 223.051 98.6463 223.036 98.5727C222.257 93.8803 221.895 89.128 221.955 84.3717C221.955 84.239 221.955 84.0873 221.955 83.9166L222.05 81.7078C222.059 81.5879 222.113 81.4758 222.201 81.3934C222.288 81.311 222.404 81.2642 222.524 81.2622H228.705C228.767 81.2615 228.829 81.2737 228.886 81.2982C228.943 81.3227 228.994 81.3589 229.037 81.4044C229.125 81.4925 229.176 81.6114 229.179 81.7362V90.7233C229.238 91.0382 229.406 91.3226 229.652 91.5272C229.899 91.7318 230.209 91.8437 230.53 91.8437C230.85 91.8437 231.161 91.7318 231.407 91.5272C231.654 91.3226 231.821 91.0382 231.881 90.7233V81.7742C231.881 81.6484 231.931 81.5279 232.02 81.439C232.108 81.3501 232.229 81.3002 232.355 81.3002H236.82C236.945 81.3002 237.066 81.3501 237.155 81.439C237.244 81.5279 237.294 81.6484 237.294 81.7742V90.7612C237.353 91.0761 237.52 91.3605 237.767 91.5651C238.014 91.7697 238.324 91.8816 238.645 91.8816C238.965 91.8816 239.276 91.7697 239.522 91.5651C239.769 91.3605 239.936 91.0761 239.996 90.7612V81.7742C239.996 81.6484 240.046 81.5279 240.134 81.439C240.223 81.3501 240.344 81.3002 240.47 81.3002H244.925C245.051 81.3002 245.171 81.3501 245.26 81.439C245.349 81.5279 245.399 81.6484 245.399 81.7742V90.7612C245.453 91.0818 245.619 91.373 245.867 91.583C246.115 91.793 246.43 91.9083 246.755 91.9083C247.08 91.9083 247.395 91.793 247.643 91.583C247.891 91.373 248.057 91.0818 248.11 90.7612V81.7742C248.11 81.6484 248.16 81.5279 248.249 81.439C248.338 81.3501 248.459 81.3002 248.584 81.3002H254.832C254.952 81.3022 255.067 81.3489 255.155 81.4313C255.243 81.5137 255.296 81.6258 255.306 81.7457L255.41 83.9166C255.41 84.1252 255.41 84.2864 255.41 84.4096C255.41 89.6615 255.334 94.0223 254.405 98.3452C254.39 98.4173 254.358 98.4849 254.312 98.5425C254.266 98.6001 254.207 98.6462 254.14 98.677C249.245 101.011 243.892 102.229 238.469 102.241ZM223.889 98.1651C228.556 100.269 233.624 101.336 238.743 101.294C243.862 101.251 248.911 100.1 253.543 97.9186C254.32 93.46 254.638 88.9332 254.491 84.4096C254.491 84.2864 254.491 84.1442 254.491 83.983L254.415 82.2482H249.087V90.7802C249.035 91.3551 248.769 91.8897 248.343 92.2789C247.917 92.6682 247.361 92.8841 246.783 92.8841C246.206 92.8841 245.65 92.6682 245.223 92.2789C244.797 91.8897 244.532 91.3551 244.48 90.7802V82.2482H240.972V90.7802C240.909 91.3458 240.64 91.8683 240.216 92.2479C239.791 92.6274 239.242 92.8372 238.673 92.8372C238.104 92.8372 237.555 92.6274 237.131 92.2479C236.707 91.8683 236.437 91.3458 236.374 90.7802V82.2482H232.857V90.7802C232.794 91.3458 232.525 91.8683 232.101 92.2479C231.677 92.6274 231.127 92.8372 230.558 92.8372C229.989 92.8372 229.44 92.6274 229.016 92.2479C228.592 91.8683 228.322 91.3458 228.259 90.7802V82.2482H223.007L222.932 83.9261C222.932 84.1347 222.932 84.2864 222.932 84.4096C222.856 89.0137 223.176 93.6158 223.889 98.1651Z" fill="#263238"/>
<path opacity="0.3" d="M276.892 205.934C276.816 204.893 276.559 203.873 276.134 202.92L275.413 201.28C274.856 200.018 274.02 198.898 272.967 198.007C271.914 197.115 270.673 196.474 269.336 196.132C269.014 196.056 268.692 195.99 268.388 195.942C267.425 195.802 266.446 195.818 265.488 195.99C265.167 196.047 264.851 196.123 264.54 196.217C263.602 196.49 262.716 196.913 261.914 197.469H261.857L261.023 198.047L260.672 198.284L260.065 198.701L259.117 199.365L258.804 199.573L257.998 200.123H257.942L255.041 202.019C249.438 205.716 242.129 210.305 234.697 214.343C225.548 219.32 213.158 225.643 201.915 230.981L188.643 237.057L179.172 241.456L107.977 273.972C107.977 273.972 95.5112 279.85 106.423 284.58C106.423 284.58 117.372 288.562 144.011 278.987C159.179 273.527 180.841 264.18 183.163 262.776C184.051 262.35 184.806 261.692 185.348 260.87C185.891 260.049 186.201 259.096 186.244 258.112C186.491 256.169 185.514 248.139 190.539 243.712L190.956 243.352C204.465 237.541 224.866 229.132 238.972 224.202C246.67 221.529 254.661 219.282 261.06 217.633L264.748 216.685H264.909L267.668 216.021L268.37 215.85L268.777 215.756L269.867 215.5C271.983 215.008 273.853 213.777 275.141 212.029C276.429 210.28 277.05 208.129 276.892 205.963V205.934Z" fill="black"/>
<path d="M260.454 195.658C251.664 201.776 242.571 207.446 233.208 212.646C224.05 217.623 211.66 223.946 200.417 229.293L106.565 272.152C106.565 272.152 94.0986 278.029 105.01 282.76C105.01 282.76 115.959 286.742 142.608 277.167C157.776 271.706 179.428 262.359 181.76 260.966C182.646 260.535 183.4 259.874 183.943 259.052C184.485 258.229 184.795 257.276 184.841 256.292C185.078 254.348 184.102 246.319 189.136 241.892L189.553 241.541C203.052 235.72 223.453 227.321 237.559 222.382C247.705 218.959 258.017 216.048 268.455 213.66C269.725 213.369 270.917 212.807 271.951 212.014C272.985 211.22 273.836 210.214 274.446 209.063C275.092 207.844 275.452 206.496 275.502 205.118C275.551 203.741 275.287 202.37 274.731 201.109L274.001 199.469C273.455 198.245 272.647 197.157 271.633 196.282C270.62 195.406 269.426 194.764 268.136 194.402C266.846 194.04 265.493 193.967 264.172 194.187C262.85 194.407 261.594 194.916 260.492 195.677L260.454 195.658Z" fill="#D9D9D9"/>
<path d="M112.205 284.078C109.71 284.183 107.214 283.888 104.811 283.206C101.654 281.841 100.071 280.22 100.071 278.371C100.014 274.769 106.119 271.849 106.375 271.735L200.284 228.866C210.996 223.776 223.548 217.405 233.037 212.238C242.369 207.052 251.431 201.394 260.188 195.288C261.349 194.485 262.673 193.948 264.065 193.716C265.457 193.484 266.884 193.563 268.242 193.946C269.601 194.329 270.858 195.007 271.924 195.932C272.99 196.858 273.838 198.007 274.408 199.298L275.138 200.938C275.709 202.23 275.987 203.633 275.952 205.045C275.917 206.457 275.569 207.844 274.935 209.106C274.301 210.369 273.395 211.475 272.283 212.346C271.171 213.217 269.88 213.831 268.502 214.144C258.08 216.527 247.784 219.435 237.654 222.856C224.145 227.549 204.057 235.796 189.742 241.968L189.392 242.271C185.4 245.788 185.344 251.647 185.306 254.794C185.317 255.319 185.298 255.845 185.249 256.368C185.197 257.425 184.863 258.448 184.281 259.332C183.699 260.216 182.891 260.927 181.94 261.392C179.58 262.805 157.946 272.161 142.712 277.631C128.103 282.874 118.206 284.078 112.205 284.078ZM260.7 196.047C251.9 202.177 242.794 207.857 233.417 213.063C223.937 218.23 211.338 224.619 200.606 229.72L106.697 272.579C105.086 273.346 100.905 275.868 100.943 278.361C100.943 279.793 102.375 281.13 105.133 282.334C105.219 282.334 116.272 286.126 142.38 276.721C157.548 271.261 179.106 261.961 181.447 260.605C182.271 260.213 182.971 259.603 183.473 258.841C183.974 258.079 184.257 257.194 184.291 256.282C184.332 255.794 184.348 255.303 184.339 254.813C184.339 251.751 184.433 245.38 188.747 241.541L189.173 241.171C189.208 241.144 189.246 241.121 189.287 241.105C203.621 234.924 223.766 226.648 237.332 221.936C247.495 218.505 257.826 215.591 268.284 213.205C269.521 212.917 270.679 212.36 271.676 211.574C272.673 210.787 273.485 209.79 274.052 208.654C274.62 207.518 274.93 206.27 274.96 205C274.991 203.731 274.741 202.47 274.228 201.308L273.498 199.658C272.985 198.496 272.222 197.462 271.262 196.629C270.303 195.796 269.172 195.185 267.949 194.84C266.727 194.495 265.443 194.424 264.19 194.633C262.937 194.841 261.745 195.324 260.7 196.047Z" fill="#263238"/>
<path d="M187.116 235.37L177.741 239.645C181.209 245.498 183.364 252.036 184.054 258.804C184.475 258.028 184.73 257.172 184.803 256.292C185.04 254.349 184.064 246.319 189.098 241.892L189.515 241.541L189.79 241.418L187.116 235.37Z" fill="#263238"/>
<path d="M184.054 259.278H183.912C183.814 259.255 183.725 259.201 183.659 259.125C183.592 259.048 183.552 258.953 183.542 258.852C182.863 252.153 180.731 245.683 177.295 239.892C177.262 239.833 177.24 239.769 177.232 239.702C177.224 239.635 177.229 239.568 177.248 239.503C177.268 239.44 177.302 239.383 177.346 239.334C177.39 239.285 177.444 239.246 177.504 239.219L186.879 234.934C186.937 234.907 187 234.892 187.063 234.89C187.127 234.888 187.19 234.899 187.249 234.922C187.308 234.945 187.362 234.98 187.408 235.024C187.454 235.069 187.49 235.122 187.515 235.18L190.188 241.228C190.213 241.286 190.227 241.347 190.228 241.41C190.229 241.472 190.218 241.534 190.195 241.592C190.172 241.651 190.138 241.704 190.094 241.749C190.051 241.793 189.999 241.829 189.941 241.854L189.723 241.949L189.373 242.252C185.382 245.769 185.325 251.628 185.287 254.775C185.298 255.3 185.279 255.826 185.23 256.349C185.153 257.293 184.878 258.21 184.424 259.041C184.387 259.109 184.334 259.166 184.27 259.207C184.205 259.249 184.131 259.273 184.054 259.278ZM178.366 239.863C181.352 245.037 183.339 250.726 184.225 256.633C184.225 256.513 184.244 256.381 184.282 256.235C184.323 255.747 184.338 255.256 184.329 254.766C184.329 251.704 184.424 245.333 188.737 241.494L189.126 241.153L186.832 235.948L178.366 239.863Z" fill="#263238"/>
</svg>
