<svg width="407" height="126" viewBox="0 0 407 126" fill="none" xmlns="http://www.w3.org/2000/svg">
<path d="M200 116C312 116 220.5 65 312 65" stroke="black" stroke-width="2" stroke-linecap="round"/>
<path d="M248 10C312 10 252.5 65 312 65" stroke="black" stroke-width="2" stroke-linecap="round"/>
<path d="M26 92C26 116 26 116 180 116" stroke="black" stroke-width="2" stroke-linecap="round"/>
<path d="M152 10H228" stroke="black" stroke-width="2" stroke-linecap="round"/>
<path d="M332 65H370" stroke="black" stroke-width="2" stroke-linecap="round"/>
<path d="M26.5 39C26.5 10 26.5 10 132 10" stroke="black" stroke-width="2" stroke-linecap="round"/>
<path d="M53 65.5C53 80.1355 41.1355 92 26.5 92C11.8645 92 0 80.1355 0 65.5C0 50.8645 11.8645 39 26.5 39C41.1355 39 53 50.8645 53 65.5Z" fill="white"/>
<circle cx="142" cy="10" r="10" fill="#8F1414"/>
<circle cx="238" cy="10" r="10" fill="#1E73C1"/>
<circle cx="190" cy="116" r="10" fill="#1E73C1"/>
<circle cx="322" cy="65" r="10" fill="#8F1414"/>
<circle cx="388.5" cy="65.5" r="18.5" fill="#DEC959"/>
<path d="M381.85 86.17H382.54V87.05C382.54 88.76 381.52 90.23 379.99 90.81L379.57 90.15C380.94 89.65 381.85 88.4 381.85 87.05V86.17ZM382 86.17H382.68V87.05C382.68 88.35 383.61 89.52 384.95 89.99L384.53 90.64C383.02 90.09 382 88.71 382 87.05V86.17ZM380.87 91.64H386.91V94.78H386.07V92.32H380.87V91.64ZM386.07 85.74H386.91V91.18H386.07V85.74ZM390.909 86.52H391.589V88.14C391.589 90.14 390.509 92.09 389.079 92.85L388.569 92.19C389.879 91.53 390.909 89.79 390.909 88.14V86.52ZM391.059 86.52H391.729V88.14C391.729 89.73 392.739 91.38 394.019 92.02L393.509 92.68C392.109 91.93 391.059 90.08 391.059 88.14V86.52ZM394.809 85.74H395.649V94.78H394.809V85.74ZM395.449 89.4H397.129V90.1H395.449V89.4Z" fill="white"/>
<path d="M312.16 80.99H312.99V82.38H312.16V80.99ZM308.49 80.51H316.66V81.18H308.49V80.51ZM309.48 82.07H315.62V84.15H310.32V85.21H309.5V83.55H314.8V82.7H309.48V82.07ZM309.5 85.04H315.89V85.68H309.5V85.04ZM312.1 77.3H312.83V77.58C312.83 78.97 311.13 79.88 309.2 80.07L308.93 79.43C310.6 79.29 312.1 78.55 312.1 77.58V77.3ZM312.34 77.3H313.06V77.58C313.06 78.55 314.56 79.29 316.23 79.43L315.96 80.07C314.04 79.88 312.34 78.97 312.34 77.58V77.3ZM309.24 77.04H315.93V77.71H309.24V77.04ZM322.209 79.8H324.729V80.48H322.209V79.8ZM320.029 77.52H320.709V79.13C320.709 81.16 319.639 83.1 318.209 83.87L317.679 83.21C319.009 82.55 320.029 80.81 320.029 79.13V77.52ZM320.189 77.52H320.859V79.13C320.859 80.78 321.879 82.42 323.189 83.04L322.699 83.71C321.239 82.97 320.189 81.11 320.189 79.13V77.52ZM324.319 76.73H325.139V85.79H324.319V76.73ZM333.478 76.74H334.308V85.78H333.478V76.74ZM330.828 77.71H331.648C331.648 80.33 330.468 82.62 327.448 84.1L327.008 83.43C329.618 82.17 330.828 80.25 330.828 77.85V77.71ZM327.418 77.71H331.188V78.39H327.418V77.71Z" fill="white"/>
<path d="M130.16 25.99H130.99V27.38H130.16V25.99ZM126.49 25.51H134.66V26.18H126.49V25.51ZM127.48 27.07H133.62V29.15H128.32V30.21H127.5V28.55H132.8V27.7H127.48V27.07ZM127.5 30.04H133.89V30.68H127.5V30.04ZM130.1 22.3H130.83V22.58C130.83 23.97 129.13 24.88 127.2 25.07L126.93 24.43C128.6 24.29 130.1 23.55 130.1 22.58V22.3ZM130.34 22.3H131.06V22.58C131.06 23.55 132.56 24.29 134.23 24.43L133.96 25.07C132.04 24.88 130.34 23.97 130.34 22.58V22.3ZM127.24 22.04H133.93V22.71H127.24V22.04ZM143.022 24.8H145.542V25.48H143.022V24.8ZM140.842 22.52H141.522V24.13C141.522 26.16 140.452 28.1 139.022 28.87L138.492 28.21C139.822 27.55 140.842 25.81 140.842 24.13V22.52ZM141.002 22.52H141.672V24.13C141.672 25.78 142.692 27.42 144.002 28.04L143.512 28.71C142.052 27.97 141.002 26.11 141.002 24.13V22.52ZM145.132 21.73H145.952V30.79H145.132V21.73ZM154.291 21.74H155.121V30.78H154.291V21.74ZM151.641 22.71H152.461C152.461 25.33 151.281 27.62 148.261 29.1L147.821 28.43C150.431 27.17 151.641 25.25 151.641 22.85V22.71ZM148.231 22.71H152.001V23.39H148.231V22.71Z" fill="white"/>
<path d="M220.85 22.17H221.54V23.05C221.54 24.76 220.52 26.23 218.99 26.81L218.57 26.15C219.94 25.65 220.85 24.4 220.85 23.05V22.17ZM221 22.17H221.68V23.05C221.68 24.35 222.61 25.52 223.95 25.99L223.53 26.64C222.02 26.09 221 24.71 221 23.05V22.17ZM219.87 27.64H225.91V30.78H225.07V28.32H219.87V27.64ZM225.07 21.74H225.91V27.18H225.07V21.74ZM230.179 25.8H230.999V27.99H230.179V25.8ZM234.299 21.74H235.129V28.57H234.299V21.74ZM228.959 29.9H235.349V30.58H228.959V29.9ZM228.959 27.83H229.789V30.11H228.959V27.83ZM227.739 26L227.629 25.31C229.289 25.31 231.559 25.28 233.489 25.01L233.549 25.61C231.579 25.95 229.379 25.99 227.739 26ZM232.339 26.66H234.509V27.32H232.339V26.66ZM228.449 22.29H232.349V22.96H228.449V22.29ZM231.839 22.29H232.659V22.63C232.659 23.18 232.659 24.13 232.419 25.44L231.599 25.38C231.839 24.06 231.839 23.16 231.839 22.63V22.29ZM240.731 22.33H246.381V23H240.731V22.33ZM239.711 26.21H247.881V26.89H239.711V26.21ZM243.361 26.66H244.191V30.79H243.361V26.66ZM245.991 22.33H246.801V23.11C246.801 24.05 246.801 25.11 246.461 26.64L245.641 26.53C245.991 25.07 245.991 24.02 245.991 23.11V22.33ZM255.79 21.74H256.59V30.78H255.79V21.74ZM254.36 25.32H256.09V26H254.36V25.32ZM253.79 21.93H254.58V30.33H253.79V21.93ZM249.23 22.78H252.68V28.36H249.23V22.78ZM251.9 23.44H250.01V27.7H251.9V23.44Z" fill="white"/>
<path d="M172.85 94.17H173.54V95.05C173.54 96.76 172.52 98.23 170.99 98.81L170.57 98.15C171.94 97.65 172.85 96.4 172.85 95.05V94.17ZM173 94.17H173.68V95.05C173.68 96.35 174.61 97.52 175.95 97.99L175.53 98.64C174.02 98.09 173 96.71 173 95.05V94.17ZM171.87 99.64H177.91V102.78H177.07V100.32H171.87V99.64ZM177.07 93.74H177.91V99.18H177.07V93.74ZM182.179 97.8H182.999V99.99H182.179V97.8ZM186.299 93.74H187.129V100.57H186.299V93.74ZM180.959 101.9H187.349V102.58H180.959V101.9ZM180.959 99.83H181.789V102.11H180.959V99.83ZM179.739 98L179.629 97.31C181.289 97.31 183.559 97.28 185.489 97.01L185.549 97.61C183.579 97.95 181.379 97.99 179.739 98ZM184.339 98.66H186.509V99.32H184.339V98.66ZM180.449 94.29H184.349V94.96H180.449V94.29ZM183.839 94.29H184.659V94.63C184.659 95.18 184.659 96.13 184.419 97.44L183.599 97.38C183.839 96.06 183.839 95.16 183.839 94.63V94.29ZM192.731 94.33H198.381V95H192.731V94.33ZM191.711 98.21H199.881V98.89H191.711V98.21ZM195.361 98.66H196.191V102.79H195.361V98.66ZM197.991 94.33H198.801V95.11C198.801 96.05 198.801 97.11 198.461 98.64L197.641 98.53C197.991 97.07 197.991 96.02 197.991 95.11V94.33ZM207.79 93.74H208.59V102.78H207.79V93.74ZM206.36 97.32H208.09V98H206.36V97.32ZM205.79 93.93H206.58V102.33H205.79V93.93ZM201.23 94.78H204.68V100.36H201.23V94.78ZM203.9 95.44H202.01V99.7H203.9V95.44Z" fill="white"/>
</svg>
